<svg width="24" height="25" viewBox="0 0 24 25" fill="none" xmlns="http://www.w3.org/2000/svg">
<g id="Group">
<path id="Vector" d="M14 14.0234V8.52344C14 7.46257 13.5786 6.44516 12.8284 5.69501C12.0783 4.94486 11.0609 4.52344 10 4.52344C8.93913 4.52344 7.92172 4.94486 7.17157 5.69501C6.42143 6.44516 6 7.46257 6 8.52344V14.0234C6 15.7473 6.68482 17.4006 7.90381 18.6196C9.12279 19.8386 10.7761 20.5234 12.5 20.5234C14.2239 20.5234 15.8772 19.8386 17.0962 18.6196C18.3152 17.4006 19 15.7473 19 14.0234V4.52344H21V14.0234C21 16.2778 20.1045 18.4398 18.5104 20.0338C16.9163 21.6279 14.7543 22.5234 12.5 22.5234C10.2457 22.5234 8.08365 21.6279 6.48959 20.0338C4.89553 18.4398 4 16.2778 4 14.0234V8.52344C4 6.93214 4.63214 5.40601 5.75736 4.2808C6.88258 3.15558 8.4087 2.52344 10 2.52344C11.5913 2.52344 13.1174 3.15558 14.2426 4.2808C15.3679 5.40601 16 6.93214 16 8.52344V14.0234C16 14.9517 15.6313 15.8419 14.9749 16.4983C14.3185 17.1547 13.4283 17.5234 12.5 17.5234C11.5717 17.5234 10.6815 17.1547 10.0251 16.4983C9.36875 15.8419 9 14.9517 9 14.0234V8.52344H11V14.0234C11 14.4213 11.158 14.8028 11.4393 15.0841C11.7206 15.3654 12.1022 15.5234 12.5 15.5234C12.8978 15.5234 13.2794 15.3654 13.5607 15.0841C13.842 14.8028 14 14.4213 14 14.0234Z" fill="#1C3375"/>
</g>
</svg>
