<svg width="32" height="32" viewBox="0 0 32 32" fill="none" xmlns="http://www.w3.org/2000/svg">
<g clip-path="url(#clip0_218_3707)">
<mask id="path-1-inside-1_218_3707" fill="white">
<path d="M15.9993 29.3333C8.63535 29.3333 2.66602 23.364 2.66602 16C2.66602 8.63596 8.63535 2.66663 15.9993 2.66663C23.3633 2.66663 29.3327 8.63596 29.3327 16C29.3327 23.364 23.3633 29.3333 15.9993 29.3333ZM15.9993 26.6666C18.8283 26.6666 21.5414 25.5428 23.5418 23.5424C25.5422 21.542 26.666 18.8289 26.666 16C26.666 13.171 25.5422 10.4579 23.5418 8.45749C21.5414 6.4571 18.8283 5.33329 15.9993 5.33329C13.1704 5.33329 10.4573 6.4571 8.45688 8.45749C6.45649 10.4579 5.33268 13.171 5.33268 16C5.33268 18.8289 6.45649 21.542 8.45688 23.5424C10.4573 25.5428 13.1704 26.6666 15.9993 26.6666V26.6666ZM14.666 20H17.3327V22.6666H14.666V20ZM14.666 9.33329H17.3327V17.3333H14.666V9.33329Z"/>
</mask>
<path d="M26.666 16L42.666 16L26.666 16ZM15.9993 5.33329L15.9993 -10.6667L15.9993 5.33329ZM5.33268 16L-10.6673 16L5.33268 16ZM14.666 20V3.99996H-1.33398V20H14.666ZM17.3327 20H33.3327V3.99996H17.3327V20ZM17.3327 22.6666V38.6666H33.3327V22.6666H17.3327ZM14.666 22.6666H-1.33398V38.6666H14.666V22.6666ZM14.666 9.33329V-6.66671H-1.33398V9.33329H14.666ZM17.3327 9.33329H33.3327V-6.66671H17.3327V9.33329ZM17.3327 17.3333V33.3333H33.3327V17.3333H17.3327ZM14.666 17.3333H-1.33398V33.3333H14.666V17.3333ZM15.9993 13.3333C17.4719 13.3333 18.666 14.5274 18.666 16H-13.334C-13.334 32.2005 -0.201207 45.3333 15.9993 45.3333V13.3333ZM18.666 16C18.666 17.4725 17.4719 18.6666 15.9993 18.6666V-13.3334C-0.201207 -13.3334 -13.334 -0.200596 -13.334 16H18.666ZM15.9993 18.6666C14.5268 18.6666 13.3327 17.4725 13.3327 16H45.3327C45.3327 -0.200596 32.1999 -13.3334 15.9993 -13.3334V18.6666ZM13.3327 16C13.3327 14.5274 14.5268 13.3333 15.9993 13.3333V45.3333C32.1999 45.3333 45.3327 32.2005 45.3327 16H13.3327ZM15.9993 42.6666C23.0718 42.6666 29.8546 39.8571 34.8555 34.8561L12.2281 12.2287C13.2283 11.2285 14.5849 10.6666 15.9993 10.6666L15.9993 42.6666ZM34.8555 34.8561C39.8565 29.8552 42.666 23.0724 42.666 16L10.666 16C10.666 14.5855 11.2279 13.2289 12.2281 12.2287L34.8555 34.8561ZM42.666 16C42.666 8.92752 39.8565 2.14475 34.8555 -2.85622L12.2281 19.7712C11.2279 18.771 10.666 17.4144 10.666 16L42.666 16ZM34.8555 -2.85622C29.8546 -7.85719 23.0718 -10.6667 15.9993 -10.6667L15.9993 21.3333C14.5849 21.3333 13.2283 20.7714 12.2281 19.7712L34.8555 -2.85622ZM15.9993 -10.6667C8.92691 -10.6667 2.14414 -7.85719 -2.85683 -2.85622L19.7706 19.7712C18.7704 20.7714 17.4138 21.3333 15.9993 21.3333L15.9993 -10.6667ZM-2.85683 -2.85622C-7.8578 2.14475 -10.6673 8.92752 -10.6673 16L21.3327 16C21.3327 17.4144 20.7708 18.771 19.7706 19.7712L-2.85683 -2.85622ZM-10.6673 16C-10.6673 23.0724 -7.8578 29.8552 -2.85683 34.8561L19.7706 12.2287C20.7708 13.2289 21.3327 14.5855 21.3327 16L-10.6673 16ZM-2.85683 34.8561C2.14414 39.8571 8.92691 42.6666 15.9993 42.6666L15.9993 10.6666C17.4138 10.6666 18.7704 11.2285 19.7706 12.2287L-2.85683 34.8561ZM14.666 36H17.3327V3.99996H14.666V36ZM1.33268 20V22.6666H33.3327V20H1.33268ZM17.3327 6.66663H14.666V38.6666H17.3327V6.66663ZM30.666 22.6666V20H-1.33398V22.6666H30.666ZM14.666 25.3333H17.3327V-6.66671H14.666V25.3333ZM1.33268 9.33329V17.3333H33.3327V9.33329H1.33268ZM17.3327 1.33329H14.666V33.3333H17.3327V1.33329ZM30.666 17.3333V9.33329H-1.33398V17.3333H30.666Z" fill="#EB5757" mask="url(#path-1-inside-1_218_3707)"/>
</g>
<defs>
<clipPath id="clip0_218_3707">
<rect width="32" height="32" fill="white"/>
</clipPath>
</defs>
</svg>
