<svg width="358" height="40" viewBox="0 0 358 40" fill="none" xmlns="http://www.w3.org/2000/svg">
<g clip-path="url(#clip0_564_6077)">
<path d="M1.06934 3.69238H8.94284C14.6131 3.69238 18.5 7.10902 18.5 12.3584C18.5 17.6078 14.6131 21.0244 8.94284 21.0244H1.06934V3.69238ZM8.74444 17.7305C12.1863 17.7305 14.4388 15.6753 14.4388 12.3573C14.4388 9.03931 12.1863 6.98406 8.74444 6.98406H5.08008V17.7294H8.74444V17.7305Z" fill="#2949A6"/>
<path d="M29.5174 7.50562V11.0713C29.1951 11.0461 28.9474 11.022 28.6503 11.022C26.5206 11.022 25.1098 12.1861 25.1098 14.7357V21.0242H21.2471V7.70292H24.9366V9.46111C25.8771 8.17316 27.4621 7.50562 29.5174 7.50562Z" fill="#2949A6"/>
<path d="M61.5991 7.70292V18.7947C61.5991 23.7459 58.9256 26.0247 54.1224 26.0247C51.5969 26.0247 49.1459 25.4054 47.5861 24.1931L49.1207 21.4199C50.2596 22.3363 52.1164 22.9304 53.8253 22.9304C56.5492 22.9304 57.7374 21.6928 57.7374 19.2912V18.7223C56.7224 19.836 55.2612 20.3808 53.5282 20.3808C49.8387 20.3808 46.8682 17.8301 46.8682 13.9432C46.8682 10.0563 49.8387 7.50562 53.5282 7.50562C55.3851 7.50562 56.9197 8.12493 57.9358 9.41179V7.70292H61.6002H61.5991ZM57.7867 13.9421C57.7867 11.9866 56.3256 10.6734 54.2955 10.6734C52.2655 10.6734 50.7803 11.9855 50.7803 13.9421C50.7803 15.8987 52.2655 17.2108 54.2955 17.2108C56.3256 17.2108 57.7867 15.8987 57.7867 13.9421Z" fill="#2949A6"/>
<path d="M81.3551 16.2946C81.3551 19.2903 78.9787 21.0233 74.422 21.0233H65.459V3.69238H73.9266C78.2596 3.69238 80.488 5.4999 80.488 8.19857C80.488 9.93156 79.5969 11.2688 78.1851 12.012C80.1164 12.6313 81.354 14.1166 81.354 16.2957L81.3551 16.2946ZM69.4456 6.71332V10.7986H73.4322C75.3877 10.7986 76.4532 10.1058 76.4532 8.74335C76.4532 7.38086 75.3888 6.71332 73.4322 6.71332H69.4456ZM77.3191 15.8737C77.3191 14.4125 76.2054 13.7198 74.125 13.7198H69.4456V18.0035H74.125C76.2043 18.0035 77.3191 17.36 77.3191 15.8737Z" fill="#2949A6"/>
<path d="M83.6572 3.69247C83.6572 2.47905 84.6229 1.53857 86.0589 1.53857C87.4948 1.53857 88.4605 2.42973 88.4605 3.61793C88.4605 4.90589 87.4948 5.84637 86.0589 5.84637C84.6229 5.84637 83.6572 4.90589 83.6572 3.69247ZM84.1275 7.70321H87.9902V21.0234H84.1275V7.70321Z" fill="#2949A6"/>
<path d="M105.197 13.3985V21.0243H101.335V13.9926C101.335 11.8387 100.344 10.8478 98.636 10.8478C96.7791 10.8478 95.4419 11.9867 95.4419 14.4377V21.0232H91.5791V7.70304H95.2687V9.26283C96.3089 8.12395 97.8687 7.50464 99.6762 7.50464C102.821 7.50464 105.197 9.33627 105.197 13.3974V13.3985Z" fill="#2949A6"/>
<path d="M34.7314 9.48169L34.7315 16.7486C34.7315 18.4127 36.0805 19.7617 37.7446 19.7617H39.1448C40.8089 19.7617 42.1579 18.4127 42.1579 16.7486L42.1579 9.48169" stroke="#2949A6" stroke-width="3.54484" stroke-linecap="square"/>
<path d="M32.8865 6.09518L32.6126 4.25206L34.9081 3.88114L34.9181 2.50724L40.4348 1.66059L41.0513 2.99386L43.7167 2.66128L43.9808 4.56316L32.8865 6.09518Z" fill="#2949A6"/>
<path d="M34.9081 3.88114L32.6126 4.25206L32.8865 6.09518L43.9808 4.56316L43.7167 2.66128L41.0513 2.99386M34.9081 3.88114L34.9181 2.50724L40.4348 1.66059L41.0513 2.99386M34.9081 3.88114L41.0513 2.99386" stroke="#2949A6" stroke-width="0.88621"/>
<path d="M5.84814 37.8779L4.36221 35.7924C5.24855 35.5057 5.75255 34.8366 5.75255 33.8807C5.75255 32.5772 4.81407 31.7952 3.26731 31.7952H0.990621V37.8779H1.63366V35.9488H3.26731C3.4411 35.9488 3.59752 35.9401 3.75393 35.9228L5.14428 37.8779H5.84814ZM3.24993 35.4014H1.63366V32.3513H3.24993C4.46648 32.3513 5.10952 32.9074 5.10952 33.8807C5.10952 34.8366 4.46648 35.4014 3.24993 35.4014ZM11.5629 35.5926C11.5629 34.2196 10.6332 33.2724 9.34708 33.2724C8.06101 33.2724 7.11384 34.237 7.11384 35.5926C7.11384 36.9481 8.08708 37.9214 9.51219 37.9214C10.2334 37.9214 10.8678 37.6607 11.2762 37.1741L10.9286 36.7743C10.581 37.1741 10.0857 37.3739 9.52956 37.3739C8.53025 37.3739 7.80032 36.7396 7.73081 35.7837H11.5543C11.5543 35.7142 11.5629 35.6447 11.5629 35.5926ZM9.34708 33.8025C10.2421 33.8025 10.8938 34.4281 10.972 35.3232H7.73081C7.80901 34.4281 8.46074 33.8025 9.34708 33.8025ZM16.8073 31.4302V34.1761C16.4249 33.5852 15.7993 33.2724 15.0694 33.2724C13.7659 33.2724 12.7927 34.2109 12.7927 35.5926C12.7927 36.9742 13.7659 37.9214 15.0694 37.9214C15.8254 37.9214 16.4597 37.5912 16.8334 36.9742V37.8779H17.4243V31.4302H16.8073ZM15.1215 37.3739C14.1483 37.3739 13.4183 36.6614 13.4183 35.5926C13.4183 34.5237 14.1483 33.8112 15.1215 33.8112C16.086 33.8112 16.816 34.5237 16.816 35.5926C16.816 36.6614 16.086 37.3739 15.1215 37.3739ZM23.0789 33.3072V35.7055C23.0789 36.7483 22.4793 37.3652 21.5235 37.3652C20.6545 37.3652 20.1505 36.8699 20.1505 35.8967V33.3072H19.5335V35.9575C19.5335 37.2697 20.2982 37.9214 21.4626 37.9214C22.1926 37.9214 22.7835 37.5999 23.105 37.0437V37.8779H23.6959V33.3072H23.0789ZM27.7527 37.9214C28.526 37.9214 29.1778 37.6086 29.5427 37.0177L29.0822 36.7048C28.7693 37.1654 28.2827 37.3739 27.7527 37.3739C26.7533 37.3739 26.0234 36.6701 26.0234 35.5926C26.0234 34.5237 26.7533 33.8112 27.7527 33.8112C28.2827 33.8112 28.7693 34.0284 29.0822 34.489L29.5427 34.1761C29.1778 33.5766 28.526 33.2724 27.7527 33.2724C26.3884 33.2724 25.3978 34.2283 25.3978 35.5926C25.3978 36.9568 26.3884 37.9214 27.7527 37.9214ZM35.1014 35.5926C35.1014 34.2196 34.1716 33.2724 32.8855 33.2724C31.5995 33.2724 30.6523 34.237 30.6523 35.5926C30.6523 36.9481 31.6255 37.9214 33.0506 37.9214C33.7719 37.9214 34.4062 37.6607 34.8146 37.1741L34.467 36.7743C34.1195 37.1741 33.6241 37.3739 33.068 37.3739C32.0687 37.3739 31.3388 36.7396 31.2692 35.7837H35.0927C35.0927 35.7142 35.1014 35.6447 35.1014 35.5926ZM32.8855 33.8025C33.7806 33.8025 34.4323 34.4281 34.5105 35.3232H31.2692C31.3475 34.4281 31.9992 33.8025 32.8855 33.8025ZM36.8525 37.9214C37.1045 37.9214 37.3217 37.7128 37.3217 37.4434C37.3217 37.1741 37.1045 36.9742 36.8525 36.9742C36.6005 36.9742 36.3919 37.1741 36.3919 37.4434C36.3919 37.7128 36.6005 37.9214 36.8525 37.9214Z" fill="#011640"/>
<path d="M45.0125 37.9301C46.5679 37.9301 47.2805 37.1654 47.2805 36.2703C47.2805 34.0545 43.5352 35.0625 43.5352 33.3941C43.5352 32.7858 44.0305 32.2905 45.1428 32.2905C45.6816 32.2905 46.2898 32.4556 46.8112 32.7945L47.0285 32.2818C46.5418 31.9429 45.8293 31.743 45.1428 31.743C43.596 31.743 42.9009 32.5164 42.9009 33.4114C42.9009 35.6621 46.6461 34.6367 46.6461 36.3051C46.6461 36.9047 46.1508 37.3826 45.0125 37.3826C44.213 37.3826 43.4396 37.0698 43.0051 36.644L42.7531 37.1393C43.205 37.6086 44.1 37.9301 45.0125 37.9301ZM50.5846 33.2724C49.8633 33.2724 49.1855 33.4983 48.725 33.8894L49.003 34.3499C49.3767 34.0197 49.9328 33.8112 50.5237 33.8112C51.3753 33.8112 51.8185 34.237 51.8185 35.019V35.2971H50.3673C49.0552 35.2971 48.6033 35.888 48.6033 36.5919C48.6033 37.3826 49.2377 37.9214 50.2717 37.9214C51.0277 37.9214 51.5665 37.6346 51.8446 37.1654V37.8779H52.4355V35.0451C52.4355 33.8633 51.7663 33.2724 50.5846 33.2724ZM50.3673 37.4348C49.6374 37.4348 49.2116 37.1046 49.2116 36.5745C49.2116 36.1052 49.4983 35.7577 50.3847 35.7577H51.8185V36.505C51.5752 37.1046 51.0625 37.4348 50.3673 37.4348ZM57.6934 33.3072L55.9641 37.2001L54.2523 33.3072H53.6092L55.6339 37.8779H56.2683L58.3016 33.3072H57.6934ZM63.4663 35.5926C63.4663 34.2196 62.5365 33.2724 61.2504 33.2724C59.9644 33.2724 59.0172 34.237 59.0172 35.5926C59.0172 36.9481 59.9904 37.9214 61.4155 37.9214C62.1368 37.9214 62.7711 37.6607 63.1795 37.1741L62.8319 36.7743C62.4844 37.1741 61.9891 37.3739 61.4329 37.3739C60.4336 37.3739 59.7037 36.7396 59.6342 35.7837H63.4576C63.4576 35.7142 63.4663 35.6447 63.4663 35.5926ZM61.2504 33.8025C62.1455 33.8025 62.7972 34.4281 62.8754 35.3232H59.6342C59.7124 34.4281 60.3641 33.8025 61.2504 33.8025ZM65.2174 37.9214C65.4694 37.9214 65.6866 37.7128 65.6866 37.4434C65.6866 37.1741 65.4694 36.9742 65.2174 36.9742C64.9654 36.9742 64.7568 37.1741 64.7568 37.4434C64.7568 37.7128 64.9654 37.9214 65.2174 37.9214Z" fill="#011640"/>
<path d="M73.9568 31.7952H71.6801V37.8779H72.3231V35.9575H73.9568C75.5035 35.9575 76.442 35.1754 76.442 33.8807C76.442 32.5772 75.5035 31.7952 73.9568 31.7952ZM73.9394 35.3927H72.3231V32.3513H73.9394C75.1559 32.3513 75.799 32.9074 75.799 33.8807C75.799 34.8366 75.1559 35.3927 73.9394 35.3927ZM78.6086 34.2022V33.3072H78.0178V37.8779H78.6347V35.5491C78.6347 34.4716 79.2169 33.8633 80.1728 33.8633C80.2162 33.8633 80.2684 33.872 80.3205 33.872V33.2724C79.4776 33.2724 78.8954 33.5939 78.6086 34.2022ZM83.6979 37.9214C85.0361 37.9214 86.0181 36.9481 86.0181 35.5926C86.0181 34.237 85.0361 33.2724 83.6979 33.2724C82.3597 33.2724 81.3691 34.237 81.3691 35.5926C81.3691 36.9481 82.3597 37.9214 83.6979 37.9214ZM83.6979 37.3739C82.7247 37.3739 81.9948 36.6614 81.9948 35.5926C81.9948 34.5237 82.7247 33.8112 83.6979 33.8112C84.6712 33.8112 85.3924 34.5237 85.3924 35.5926C85.3924 36.6614 84.6712 37.3739 83.6979 37.3739ZM89.9019 37.1567C89.7281 37.3131 89.4761 37.3913 89.2241 37.3913C88.7115 37.3913 88.4334 37.0959 88.4334 36.5571V33.8286H89.8237V33.3072H88.4334V32.3079H87.8164V33.3072H86.9996V33.8286H87.8164V36.5919C87.8164 37.4348 88.2944 37.9214 89.1546 37.9214C89.5109 37.9214 89.8759 37.8171 90.1192 37.5999L89.9019 37.1567ZM95.5041 35.5926C95.5041 34.2196 94.5743 33.2724 93.2883 33.2724C92.0022 33.2724 91.055 34.237 91.055 35.5926C91.055 36.9481 92.0283 37.9214 93.4534 37.9214C94.1746 37.9214 94.8089 37.6607 95.2174 37.1741L94.8698 36.7743C94.5222 37.1741 94.0269 37.3739 93.4707 37.3739C92.4714 37.3739 91.7415 36.7396 91.672 35.7837H95.4954C95.4954 35.7142 95.5041 35.6447 95.5041 35.5926ZM93.2883 33.8025C94.1833 33.8025 94.835 34.4281 94.9132 35.3232H91.672C91.7502 34.4281 92.4019 33.8025 93.2883 33.8025ZM99.0887 37.9214C99.8621 37.9214 100.514 37.6086 100.879 37.0177L100.418 36.7048C100.105 37.1654 99.6188 37.3739 99.0887 37.3739C98.0894 37.3739 97.3595 36.6701 97.3595 35.5926C97.3595 34.5237 98.0894 33.8112 99.0887 33.8112C99.6188 33.8112 100.105 34.0284 100.418 34.489L100.879 34.1761C100.514 33.5766 99.8621 33.2724 99.0887 33.2724C97.7245 33.2724 96.7338 34.2283 96.7338 35.5926C96.7338 36.9568 97.7245 37.9214 99.0887 37.9214ZM104.766 37.1567C104.592 37.3131 104.34 37.3913 104.088 37.3913C103.576 37.3913 103.297 37.0959 103.297 36.5571V33.8286H104.688V33.3072H103.297V32.3079H102.68V33.3072H101.864V33.8286H102.68V36.5919C102.68 37.4348 103.158 37.9214 104.019 37.9214C104.375 37.9214 104.74 37.8171 104.983 37.5999L104.766 37.1567Z" fill="#011640"/>
</g>
<defs>
<clipPath id="clip0_564_6077">
<rect width="358" height="39.559" fill="white"/>
</clipPath>
</defs>
</svg>
