<svg width="24" height="25" viewBox="0 0 24 25" fill="none" xmlns="http://www.w3.org/2000/svg">
<g clip-path="url(#clip0_209_5030)">
<path d="M12 9.30701C11.2044 9.30701 10.4413 9.62308 9.87868 10.1857C9.31607 10.7483 9 11.5114 9 12.307C9 13.1027 9.31607 13.8657 9.87868 14.4283C10.4413 14.9909 11.2044 15.307 12 15.307C12.7956 15.307 13.5587 14.9909 14.1213 14.4283C14.6839 13.8657 15 13.1027 15 12.307C15 11.5114 14.6839 10.7483 14.1213 10.1857C13.5587 9.62308 12.7956 9.30701 12 9.30701ZM12 7.30701C13.3261 7.30701 14.5979 7.83379 15.5355 8.77147C16.4732 9.70916 17 10.9809 17 12.307C17 13.6331 16.4732 14.9049 15.5355 15.8425C14.5979 16.7802 13.3261 17.307 12 17.307C10.6739 17.307 9.40215 16.7802 8.46447 15.8425C7.52678 14.9049 7 13.6331 7 12.307C7 10.9809 7.52678 9.70916 8.46447 8.77147C9.40215 7.83379 10.6739 7.30701 12 7.30701ZM18.5 7.05701C18.5 7.38853 18.3683 7.70647 18.1339 7.94089C17.8995 8.17531 17.5815 8.30701 17.25 8.30701C16.9185 8.30701 16.6005 8.17531 16.3661 7.94089C16.1317 7.70647 16 7.38853 16 7.05701C16 6.72549 16.1317 6.40754 16.3661 6.17312C16.6005 5.9387 16.9185 5.80701 17.25 5.80701C17.5815 5.80701 17.8995 5.9387 18.1339 6.17312C18.3683 6.40754 18.5 6.72549 18.5 7.05701ZM12 4.30701C9.526 4.30701 9.122 4.31401 7.971 4.36501C7.187 4.40201 6.661 4.50701 6.173 4.69701C5.739 4.86501 5.426 5.06601 5.093 5.40001C4.78001 5.70241 4.53935 6.07159 4.389 6.48001C4.199 6.97001 4.094 7.49501 4.058 8.27801C4.006 9.38201 4 9.76801 4 12.307C4 14.781 4.007 15.185 4.058 16.336C4.095 17.119 4.2 17.646 4.389 18.133C4.559 18.568 4.759 18.881 5.091 19.213C5.428 19.549 5.741 19.75 6.171 19.916C6.665 20.107 7.191 20.213 7.971 20.249C9.075 20.301 9.461 20.307 12 20.307C14.474 20.307 14.878 20.3 16.029 20.249C16.811 20.212 17.338 20.107 17.826 19.918C18.259 19.749 18.574 19.548 18.906 19.216C19.243 18.879 19.444 18.566 19.61 18.136C19.8 17.643 19.906 17.116 19.942 16.336C19.994 15.232 20 14.846 20 12.307C20 9.83301 19.993 9.42901 19.942 8.27801C19.905 7.49601 19.8 6.96801 19.61 6.48001C19.4593 6.07201 19.2191 5.70297 18.907 5.40001C18.6047 5.08685 18.2355 4.84617 17.827 4.69601C17.337 4.50601 16.811 4.40101 16.029 4.36501C14.925 4.31301 14.539 4.30701 12 4.30701ZM12 2.30701C14.717 2.30701 15.056 2.31701 16.122 2.36701C17.187 2.41701 17.912 2.58401 18.55 2.83201C19.21 3.08601 19.766 3.43001 20.322 3.98501C20.8305 4.4849 21.224 5.0896 21.475 5.75701C21.722 6.39401 21.89 7.12001 21.94 8.18501C21.987 9.25101 22 9.59001 22 12.307C22 15.024 21.99 15.363 21.94 16.429C21.89 17.494 21.722 18.219 21.475 18.857C21.2247 19.5248 20.8311 20.1296 20.322 20.629C19.822 21.1373 19.2173 21.5308 18.55 21.782C17.913 22.029 17.187 22.197 16.122 22.247C15.056 22.294 14.717 22.307 12 22.307C9.283 22.307 8.944 22.297 7.878 22.247C6.813 22.197 6.088 22.029 5.45 21.782C4.78233 21.5315 4.17753 21.138 3.678 20.629C3.16941 20.1292 2.77593 19.5245 2.525 18.857C2.277 18.22 2.11 17.494 2.06 16.429C2.013 15.363 2 15.024 2 12.307C2 9.59001 2.01 9.25101 2.06 8.18501C2.11 7.11901 2.277 6.39501 2.525 5.75701C2.77524 5.08919 3.1688 4.48433 3.678 3.98501C4.17767 3.47624 4.78243 3.08274 5.45 2.83201C6.088 2.58401 6.812 2.41701 7.878 2.36701C8.944 2.32001 9.283 2.30701 12 2.30701Z" fill="#09121F"/>
</g>
<defs>
<clipPath id="clip0_209_5030">
<rect width="24" height="24" fill="white" transform="translate(0 0.307007)"/>
</clipPath>
</defs>
</svg>
