<svg width="148" height="38" viewBox="0 0 148 38" fill="none" xmlns="http://www.w3.org/2000/svg">
<path d="M1.50476 5.8877H12.5818C20.5592 5.8877 26.0275 10.6945 26.0275 18.0797C26.0275 25.4649 20.5592 30.2716 12.5818 30.2716H1.50476V5.8877ZM12.3027 25.6376C17.1449 25.6376 20.314 22.7461 20.314 18.0781C20.314 13.4101 17.1449 10.5187 12.3027 10.5187H7.14737V25.636H12.3027V25.6376Z" fill="#2949A6"/>
<path d="M41.527 11.2524V16.2689C41.0736 16.2335 40.7251 16.1996 40.3072 16.1996C37.3108 16.1996 35.3261 17.8373 35.3261 21.4242V30.2714H29.8917V11.53H35.0825V14.0036C36.4056 12.1916 38.6355 11.2524 41.527 11.2524Z" fill="#2949A6"/>
<path d="M86.6618 11.53V27.1347C86.6618 34.1004 82.9005 37.3065 76.143 37.3065C72.5899 37.3065 69.1418 36.4352 66.9473 34.7296L69.1063 30.8281C70.7086 32.1173 73.3209 32.9531 75.7251 32.9531C79.5572 32.9531 81.2289 31.2121 81.2289 27.8333V27.0329C79.8009 28.5997 77.7452 29.3661 75.3072 29.3661C70.1164 29.3661 65.9373 25.7776 65.9373 20.3093C65.9373 14.8409 70.1164 11.2524 75.3072 11.2524C77.9195 11.2524 80.0785 12.1237 81.508 13.9342V11.53H86.6633H86.6618ZM81.2983 20.3077C81.2983 17.5566 79.2426 15.7092 76.3866 15.7092C73.5306 15.7092 71.4411 17.5551 71.4411 20.3077C71.4411 23.0604 73.5306 24.9063 76.3866 24.9063C79.2426 24.9063 81.2983 23.0604 81.2983 20.3077Z" fill="#2949A6"/>
<path d="M114.457 23.6174C114.457 27.832 111.114 30.2701 104.703 30.2701H92.0935V5.8877H104.006C110.102 5.8877 113.237 8.43065 113.237 12.2273C113.237 14.6654 111.984 16.5468 109.997 17.5924C112.715 18.4637 114.456 20.5532 114.456 23.6189L114.457 23.6174ZM97.7022 10.1378V15.8852H103.311C106.062 15.8852 107.561 14.9106 107.561 12.9938C107.561 11.0769 106.064 10.1378 103.311 10.1378H97.7022ZM108.779 23.0252C108.779 20.9696 107.212 19.995 104.285 19.995H97.7022V26.0216H104.285C107.211 26.0216 108.779 25.1163 108.779 23.0252Z" fill="#2949A6"/>
<path d="M117.695 5.88768C117.695 4.18056 119.054 2.85742 121.074 2.85742C123.094 2.85742 124.453 4.11116 124.453 5.78282C124.453 7.5948 123.094 8.91794 121.074 8.91794C119.054 8.91794 117.695 7.5948 117.695 5.88768ZM118.357 11.5303H123.791V30.2701H118.357V11.5303Z" fill="#2949A6"/>
<path d="M148 19.5429V30.2714H142.565V20.3788C142.565 17.3485 141.171 15.9544 138.769 15.9544C136.156 15.9544 134.275 17.5567 134.275 21.0049V30.2699H128.841V11.5301H134.031V13.7245C135.495 12.1223 137.689 11.251 140.232 11.251C144.657 11.251 148 13.8279 148 19.5414V19.5429Z" fill="#2949A6"/>
<path d="M48.0173 13.8018L48.0173 23.8485C48.0173 26.1492 49.8824 28.0142 52.1831 28.0142H54.119C56.4197 28.0142 58.2847 26.1492 58.2847 23.8485L58.2847 13.8018" stroke="#2949A6" stroke-width="4.90086" stroke-linecap="square"/>
<path d="M45.4669 9.11983L45.0882 6.57167L48.2618 6.05885L48.2755 4.1594L55.9026 2.98888L56.7549 4.83217L60.4399 4.37236L60.8051 7.00177L45.4669 9.11983Z" fill="#2949A6"/>
<path d="M48.2618 6.05885L45.0882 6.57167L45.4669 9.11984L60.8051 7.00177L60.4399 4.37236L56.7549 4.83217M48.2618 6.05885L48.2755 4.1594L55.9026 2.98888L56.7549 4.83217M48.2618 6.05885L56.7549 4.83217" stroke="#2949A6" stroke-width="1.22521"/>
</svg>
