<svg width="107" height="28" viewBox="0 0 107 28" fill="none" xmlns="http://www.w3.org/2000/svg">
<path d="M1.9707 4.67969H9.84421C15.5145 4.67969 19.4014 8.09632 19.4014 13.3457C19.4014 18.5951 15.5145 22.0117 9.84421 22.0117H1.9707V4.67969ZM9.64581 18.7178C13.0877 18.7178 15.3402 16.6626 15.3402 13.3446C15.3402 10.0266 13.0877 7.97137 9.64581 7.97137H5.98144V18.7167H9.64581V18.7178Z" fill="#2949A6"/>
<path d="M30.4187 8.49316V12.0589C30.0965 12.0337 29.8488 12.0095 29.5517 12.0095C27.4219 12.0095 26.0112 13.1736 26.0112 15.7232V22.0117H22.1484V8.69047H25.838V10.4487C26.7785 9.16071 28.3635 8.49316 30.4187 8.49316Z" fill="#2949A6"/>
<path d="M62.5004 8.69047V19.7822C62.5004 24.7334 59.827 27.0123 55.0237 27.0123C52.4982 27.0123 50.0473 26.393 48.4875 25.1806L50.0221 22.4074C51.161 23.3238 53.0178 23.9179 54.7267 23.9179C57.4506 23.9179 58.6388 22.6804 58.6388 20.2788V19.7099C57.6237 20.8235 56.1626 21.3683 54.4296 21.3683C50.74 21.3683 47.7695 18.8176 47.7695 14.9307C47.7695 11.0439 50.74 8.49316 54.4296 8.49316C56.2865 8.49316 57.821 9.11248 58.8372 10.3993V8.69047H62.5015H62.5004ZM58.6881 14.9296C58.6881 12.9741 57.2269 11.661 55.1969 11.661C53.1669 11.661 51.6816 12.973 51.6816 14.9296C51.6816 16.8862 53.1669 18.1983 55.1969 18.1983C57.2269 18.1983 58.6881 16.8862 58.6881 14.9296Z" fill="#2949A6"/>
<path d="M82.2564 17.2819C82.2564 20.2776 79.88 22.0106 75.3234 22.0106H66.3604V4.67969H74.828C79.161 4.67969 81.3894 6.48721 81.3894 9.18588C81.3894 10.9189 80.4982 12.2561 79.0864 12.9993C81.0178 13.6186 82.2553 15.1039 82.2553 17.283L82.2564 17.2819ZM70.347 7.70062V11.7859H74.3336C76.2891 11.7859 77.3545 11.0931 77.3545 9.73066C77.3545 8.36817 76.2902 7.70062 74.3336 7.70062H70.347ZM78.2205 16.861C78.2205 15.3998 77.1068 14.7071 75.0264 14.7071H70.347V18.9908H75.0264C77.1057 18.9908 78.2205 18.3473 78.2205 16.861Z" fill="#2949A6"/>
<path d="M84.5586 4.67977C84.5586 3.46636 85.5243 2.52588 86.9602 2.52588C88.3961 2.52588 89.3618 3.41703 89.3618 4.60524C89.3618 5.89319 88.3961 6.83367 86.9602 6.83367C85.5243 6.83367 84.5586 5.89319 84.5586 4.67977ZM85.0288 8.69052H88.8916V22.0107H85.0288V8.69052Z" fill="#2949A6"/>
<path d="M106.099 14.3856V22.0114H102.236V14.9797C102.236 12.8258 101.245 11.8349 99.5374 11.8349C97.6805 11.8349 96.3432 12.9738 96.3432 15.4247V22.0103H92.4805V8.6901H96.17V10.2499C97.2103 9.11101 98.7701 8.4917 100.578 8.4917C103.722 8.4917 106.099 10.3233 106.099 14.3845V14.3856Z" fill="#2949A6"/>
<path d="M35.6328 10.4688L35.6328 17.7357C35.6328 19.3998 36.9818 20.7488 38.6459 20.7488H40.0462C41.7103 20.7488 43.0593 19.3998 43.0593 17.7357L43.0593 10.4688" stroke="#2949A6" stroke-width="3.54484" stroke-linecap="square"/>
<path d="M33.7879 7.08199L33.514 5.23888L35.8095 4.86795L35.8194 3.49406L41.3361 2.64741L41.9527 3.98068L44.6181 3.64809L44.8822 5.54997L33.7879 7.08199Z" fill="#2949A6"/>
<path d="M35.8095 4.86795L33.514 5.23888L33.7879 7.08199L44.8822 5.54997L44.6181 3.64809L41.9527 3.98068M35.8095 4.86795L35.8194 3.49406L41.3361 2.64741L41.9527 3.98068M35.8095 4.86795L41.9527 3.98068" stroke="#2949A6" stroke-width="0.88621"/>
</svg>
