<svg width="24" height="24" viewBox="0 0 24 24" fill="none" xmlns="http://www.w3.org/2000/svg">
<g clip-path="url(#clip0_564_6311)">
<path d="M3.16104 4.46892C4.32111 3.30865 5.87704 2.63001 7.51664 2.56917C9.15624 2.50834 10.7582 3.06981 12.001 4.14092C13.2428 3.07159 14.8426 2.51075 16.4803 2.57068C18.1179 2.63061 19.6724 3.30689 20.8327 4.46413C21.993 5.62136 22.6733 7.17414 22.7375 8.81161C22.8018 10.4491 22.2451 12.0504 21.179 13.2949L13.414 21.0849C13.0573 21.4418 12.5788 21.6506 12.0746 21.6695C11.5703 21.6885 11.0775 21.5161 10.695 21.1869L10.585 21.0859L2.82104 13.2949C1.75553 12.0514 1.19862 10.4516 1.26166 8.8153C1.32469 7.17898 2.00303 5.62674 3.16104 4.46892ZM4.57504 5.88292C3.75728 6.70091 3.2859 7.80236 3.25871 8.95869C3.23152 10.115 3.65063 11.2374 4.42904 12.0929L4.57504 12.2469L12 19.6719L17.303 14.3679L13.768 10.8329L12.708 11.8929C12.4295 12.1716 12.0988 12.3927 11.7348 12.5435C11.3709 12.6944 10.9807 12.7721 10.5868 12.7722C9.79103 12.7724 9.02783 12.4564 8.46504 11.8939C7.90225 11.3314 7.58598 10.5683 7.58579 9.77263C7.5856 8.97691 7.90152 8.21371 8.46404 7.65092L10.566 5.54792C9.72951 4.88029 8.68245 4.53261 7.61273 4.56725C6.543 4.60188 5.52063 5.01658 4.72904 5.73692L4.57504 5.88292ZM13.061 8.71092C13.2486 8.52345 13.5029 8.41813 13.768 8.41813C14.0332 8.41813 14.2875 8.52345 14.475 8.71092L18.717 12.9529L19.425 12.2469C20.2565 11.4161 20.7299 10.2928 20.7439 9.11748C20.7579 7.94213 20.3115 6.80794 19.5001 5.95747C18.6887 5.10701 17.5767 4.60779 16.402 4.56657C15.2273 4.52536 14.0831 4.94542 13.214 5.73692L13.061 5.88292L9.87904 9.06492C9.70571 9.23813 9.60202 9.46896 9.58764 9.71358C9.57326 9.95821 9.6492 10.1996 9.80104 10.3919L9.87904 10.4789C10.0523 10.6523 10.2831 10.7559 10.5277 10.7703C10.7723 10.7847 11.0137 10.7088 11.206 10.5569L11.293 10.4789L13.061 8.71092Z" fill="#1C3375"/>
</g>
<defs>
<clipPath id="clip0_564_6311">
<rect width="24" height="24" fill="white"/>
</clipPath>
</defs>
</svg>
