<svg width="24" height="25" viewBox="0 0 24 25" fill="none" xmlns="http://www.w3.org/2000/svg">
<g clip-path="url(#clip0_1079_4405)">
<path d="M12 9.5C11.2044 9.5 10.4413 9.81607 9.87868 10.3787C9.31607 10.9413 9 11.7044 9 12.5C9 13.2956 9.31607 14.0587 9.87868 14.6213C10.4413 15.1839 11.2044 15.5 12 15.5C12.7956 15.5 13.5587 15.1839 14.1213 14.6213C14.6839 14.0587 15 13.2956 15 12.5C15 11.7044 14.6839 10.9413 14.1213 10.3787C13.5587 9.81607 12.7956 9.5 12 9.5ZM12 7.5C13.3261 7.5 14.5979 8.02678 15.5355 8.96447C16.4732 9.90215 17 11.1739 17 12.5C17 13.8261 16.4732 15.0979 15.5355 16.0355C14.5979 16.9732 13.3261 17.5 12 17.5C10.6739 17.5 9.40215 16.9732 8.46447 16.0355C7.52678 15.0979 7 13.8261 7 12.5C7 11.1739 7.52678 9.90215 8.46447 8.96447C9.40215 8.02678 10.6739 7.5 12 7.5ZM18.5 7.25C18.5 7.58152 18.3683 7.89946 18.1339 8.13388C17.8995 8.3683 17.5815 8.5 17.25 8.5C16.9185 8.5 16.6005 8.3683 16.3661 8.13388C16.1317 7.89946 16 7.58152 16 7.25C16 6.91848 16.1317 6.60054 16.3661 6.36612C16.6005 6.1317 16.9185 6 17.25 6C17.5815 6 17.8995 6.1317 18.1339 6.36612C18.3683 6.60054 18.5 6.91848 18.5 7.25ZM12 4.5C9.526 4.5 9.122 4.507 7.971 4.558C7.187 4.595 6.661 4.7 6.173 4.89C5.739 5.058 5.426 5.259 5.093 5.593C4.78001 5.8954 4.53935 6.26458 4.389 6.673C4.199 7.163 4.094 7.688 4.058 8.471C4.006 9.575 4 9.961 4 12.5C4 14.974 4.007 15.378 4.058 16.529C4.095 17.312 4.2 17.839 4.389 18.326C4.559 18.761 4.759 19.074 5.091 19.406C5.428 19.742 5.741 19.943 6.171 20.109C6.665 20.3 7.191 20.406 7.971 20.442C9.075 20.494 9.461 20.5 12 20.5C14.474 20.5 14.878 20.493 16.029 20.442C16.811 20.405 17.338 20.3 17.826 20.111C18.259 19.942 18.574 19.741 18.906 19.409C19.243 19.072 19.444 18.759 19.61 18.329C19.8 17.836 19.906 17.309 19.942 16.529C19.994 15.425 20 15.039 20 12.5C20 10.026 19.993 9.622 19.942 8.471C19.905 7.689 19.8 7.161 19.61 6.673C19.4593 6.265 19.2191 5.89596 18.907 5.593C18.6047 5.27985 18.2355 5.03917 17.827 4.889C17.337 4.699 16.811 4.594 16.029 4.558C14.925 4.506 14.539 4.5 12 4.5ZM12 2.5C14.717 2.5 15.056 2.51 16.122 2.56C17.187 2.61 17.912 2.777 18.55 3.025C19.21 3.279 19.766 3.623 20.322 4.178C20.8305 4.6779 21.224 5.28259 21.475 5.95C21.722 6.587 21.89 7.313 21.94 8.378C21.987 9.444 22 9.783 22 12.5C22 15.217 21.99 15.556 21.94 16.622C21.89 17.687 21.722 18.412 21.475 19.05C21.2247 19.7178 20.8311 20.3226 20.322 20.822C19.822 21.3303 19.2173 21.7238 18.55 21.975C17.913 22.222 17.187 22.39 16.122 22.44C15.056 22.487 14.717 22.5 12 22.5C9.283 22.5 8.944 22.49 7.878 22.44C6.813 22.39 6.088 22.222 5.45 21.975C4.78233 21.7245 4.17753 21.3309 3.678 20.822C3.16941 20.3222 2.77593 19.7175 2.525 19.05C2.277 18.413 2.11 17.687 2.06 16.622C2.013 15.556 2 15.217 2 12.5C2 9.783 2.01 9.444 2.06 8.378C2.11 7.312 2.277 6.588 2.525 5.95C2.77524 5.28218 3.1688 4.67732 3.678 4.178C4.17767 3.66923 4.78243 3.27573 5.45 3.025C6.088 2.777 6.812 2.61 7.878 2.56C8.944 2.513 9.283 2.5 12 2.5Z" fill="#1C3375"/>
</g>
<defs>
<clipPath id="clip0_1079_4405">
<rect width="24" height="24" fill="white" transform="translate(0 0.5)"/>
</clipPath>
</defs>
</svg>
