<svg width="24" height="25" viewBox="0 0 24 25" fill="none" xmlns="http://www.w3.org/2000/svg">
<g clip-path="url(#clip0_1079_4406)">
<path d="M12 10.05C12.917 9.113 14.111 8.5 15.5 8.5C16.9587 8.5 18.3576 9.07946 19.3891 10.1109C20.4205 11.1424 21 12.5413 21 14V21.5H19V14C19 13.0717 18.6313 12.1815 17.9749 11.5251C17.3185 10.8687 16.4283 10.5 15.5 10.5C14.5717 10.5 13.6815 10.8687 13.0251 11.5251C12.3687 12.1815 12 13.0717 12 14V21.5H10V9H12V10.05ZM5 7C4.60218 7 4.22064 6.84196 3.93934 6.56066C3.65804 6.27936 3.5 5.89782 3.5 5.5C3.5 5.10218 3.65804 4.72064 3.93934 4.43934C4.22064 4.15804 4.60218 4 5 4C5.39782 4 5.77936 4.15804 6.06066 4.43934C6.34196 4.72064 6.5 5.10218 6.5 5.5C6.5 5.89782 6.34196 6.27936 6.06066 6.56066C5.77936 6.84196 5.39782 7 5 7ZM4 9H6V21.5H4V9Z" fill="#1C3375"/>
</g>
<defs>
<clipPath id="clip0_1079_4406">
<rect width="24" height="24" fill="white" transform="translate(0 0.5)"/>
</clipPath>
</defs>
</svg>
