<svg width="106" height="40" viewBox="0 0 106 40" fill="none" xmlns="http://www.w3.org/2000/svg">
<path d="M1.06934 3.69141H8.94284C14.6131 3.69141 18.5 7.10804 18.5 12.3574C18.5 17.6068 14.6131 21.0234 8.94284 21.0234H1.06934V3.69141ZM8.74444 17.7295C12.1863 17.7295 14.4388 15.6743 14.4388 12.3563C14.4388 9.03833 12.1863 6.98309 8.74444 6.98309H5.08008V17.7284H8.74444V17.7295Z" fill="#2949A6"/>
<path d="M29.5174 7.50586V11.0716C29.1951 11.0464 28.9474 11.0222 28.6503 11.0222C26.5206 11.0222 25.1098 12.1863 25.1098 14.7359V21.0244H21.2471V7.70316H24.9366V9.46136C25.8771 8.1734 27.4621 7.50586 29.5174 7.50586Z" fill="#2949A6"/>
<path d="M61.5991 7.70316V18.7949C61.5991 23.7461 58.9256 26.025 54.1224 26.025C51.5969 26.025 49.1459 25.4057 47.5861 24.1933L49.1207 21.4201C50.2596 22.3365 52.1164 22.9306 53.8253 22.9306C56.5492 22.9306 57.7374 21.6931 57.7374 19.2915V18.7226C56.7224 19.8362 55.2612 20.381 53.5282 20.381C49.8387 20.381 46.8682 17.8303 46.8682 13.9434C46.8682 10.0566 49.8387 7.50586 53.5282 7.50586C55.3851 7.50586 56.9197 8.12517 57.9358 9.41203V7.70316H61.6002H61.5991ZM57.7867 13.9423C57.7867 11.9868 56.3256 10.6737 54.2955 10.6737C52.2655 10.6737 50.7803 11.9857 50.7803 13.9423C50.7803 15.8989 52.2655 17.211 54.2955 17.211C56.3256 17.211 57.7867 15.8989 57.7867 13.9423Z" fill="#2949A6"/>
<path d="M81.3551 16.2936C81.3551 19.2893 78.9787 21.0223 74.422 21.0223H65.459V3.69141H73.9266C78.2596 3.69141 80.488 5.49893 80.488 8.1976C80.488 9.93058 79.5969 11.2679 78.1851 12.011C80.1164 12.6303 81.354 14.1156 81.354 16.2947L81.3551 16.2936ZM69.4456 6.71234V10.7976H73.4322C75.3877 10.7976 76.4532 10.1049 76.4532 8.74237C76.4532 7.37988 75.3888 6.71234 73.4322 6.71234H69.4456ZM77.3191 15.8727C77.3191 14.4116 76.2054 13.7188 74.125 13.7188H69.4456V18.0025H74.125C76.2043 18.0025 77.3191 17.3591 77.3191 15.8727Z" fill="#2949A6"/>
<path d="M83.6572 3.69296C83.6572 2.47954 84.6229 1.53906 86.0589 1.53906C87.4948 1.53906 88.4605 2.43022 88.4605 3.61842C88.4605 4.90637 87.4948 5.84685 86.0589 5.84685C84.6229 5.84685 83.6572 4.90637 83.6572 3.69296ZM84.1275 7.7037H87.9902V21.0239H84.1275V7.7037Z" fill="#2949A6"/>
<path d="M105.197 13.3978V21.0236H101.335V13.9919C101.335 11.838 100.344 10.8471 98.636 10.8471C96.7791 10.8471 95.4419 11.986 95.4419 14.4369V21.0225H91.5791V7.70231H95.2687V9.2621C96.3089 8.12322 97.8687 7.50391 99.6762 7.50391C102.821 7.50391 105.197 9.33554 105.197 13.3967V13.3978Z" fill="#2949A6"/>
<path d="M34.7314 9.48242L34.7315 16.7493C34.7315 18.4134 36.0805 19.7625 37.7446 19.7625H39.1448C40.8089 19.7625 42.1579 18.4134 42.1579 16.7493L42.1579 9.48242" stroke="#2949A6" stroke-width="3.54484" stroke-linecap="square"/>
<path d="M32.8865 6.09664L32.6126 4.25352L34.9081 3.8826L34.9181 2.50871L40.4348 1.66206L41.0513 2.99533L43.7167 2.66274L43.9808 4.56462L32.8865 6.09664Z" fill="#2949A6"/>
<path d="M34.9081 3.8826L32.6126 4.25352L32.8865 6.09664L43.9808 4.56462L43.7167 2.66274L41.0513 2.99533M34.9081 3.8826L34.9181 2.50871L40.4348 1.66206L41.0513 2.99533M34.9081 3.8826L41.0513 2.99533" stroke="#2949A6" stroke-width="0.88621"/>
<path d="M0.990621 37.8789V31.7961H3.26731C3.7829 31.7961 4.22607 31.8801 4.59683 32.0481C4.96759 32.2104 5.25145 32.4479 5.44841 32.7607C5.65117 33.0677 5.75255 33.4414 5.75255 33.8817C5.75255 34.3104 5.65117 34.6811 5.44841 34.9939C5.25145 35.301 4.96759 35.5385 4.59683 35.7065C4.22607 35.8687 3.7829 35.9498 3.26731 35.9498H1.3469L1.63366 35.6544V37.8789H0.990621ZM5.14428 37.8789L3.58014 35.6717H4.27531L5.84814 37.8789H5.14428ZM1.63366 35.7065L1.3469 35.4024H3.24993C3.85821 35.4024 4.31876 35.2691 4.63159 35.0026C4.95021 34.7361 5.10952 34.3625 5.10952 33.8817C5.10952 33.395 4.95021 33.0185 4.63159 32.752C4.31876 32.4855 3.85821 32.3523 3.24993 32.3523H1.3469L1.63366 32.0481V35.7065ZM9.51219 37.9224C9.03715 37.9224 8.62005 37.8239 8.26087 37.6269C7.9017 37.4241 7.62074 37.149 7.41798 36.8014C7.21522 36.448 7.11384 36.0454 7.11384 35.5935C7.11384 35.1417 7.20943 34.7419 7.4006 34.3944C7.59756 34.0468 7.86405 33.7745 8.20005 33.5775C8.54184 33.3748 8.92419 33.2734 9.34708 33.2734C9.77577 33.2734 10.1552 33.3719 10.4854 33.5688C10.8214 33.76 11.085 34.0323 11.2762 34.3857C11.4674 34.7333 11.5629 35.1359 11.5629 35.5935C11.5629 35.6225 11.56 35.6544 11.5543 35.6891C11.5543 35.7181 11.5543 35.7499 11.5543 35.7847H7.58308V35.3241H11.224L10.9807 35.5066C10.9807 35.1764 10.9083 34.8839 10.7635 34.629C10.6245 34.3683 10.4333 34.1655 10.19 34.0207C9.94667 33.8759 9.6657 33.8035 9.34708 33.8035C9.03425 33.8035 8.75329 33.8759 8.50419 34.0207C8.25508 34.1655 8.06101 34.3683 7.92198 34.629C7.78294 34.8897 7.71343 35.188 7.71343 35.524V35.6196C7.71343 35.9672 7.78874 36.2742 7.93936 36.5407C8.09577 36.8014 8.31012 37.007 8.58239 37.1577C8.86046 37.3025 9.17619 37.3749 9.52956 37.3749C9.80763 37.3749 10.0654 37.3257 10.3029 37.2272C10.5463 37.1287 10.7548 36.9781 10.9286 36.7753L11.2762 37.175C11.0734 37.4184 10.8185 37.6037 10.5115 37.7312C10.2103 37.8586 9.87715 37.9224 9.51219 37.9224ZM15.0694 37.9224C14.6349 37.9224 14.2438 37.8239 13.8963 37.6269C13.5545 37.4299 13.2851 37.1577 13.0881 36.8101C12.8911 36.4567 12.7927 36.0512 12.7927 35.5935C12.7927 35.1301 12.8911 34.7246 13.0881 34.377C13.2851 34.0294 13.5545 33.76 13.8963 33.5688C14.2438 33.3719 14.6349 33.2734 15.0694 33.2734C15.4691 33.2734 15.8254 33.3632 16.1382 33.5428C16.4568 33.7224 16.7088 33.9859 16.8942 34.3335C17.0854 34.6753 17.1809 35.0953 17.1809 35.5935C17.1809 36.0859 17.0883 36.5059 16.9029 36.8535C16.7175 37.2011 16.4655 37.4676 16.1469 37.653C15.834 37.8326 15.4749 37.9224 15.0694 37.9224ZM15.1128 37.3749C15.4372 37.3749 15.7269 37.3025 15.9818 37.1577C16.2425 37.007 16.4452 36.7985 16.59 36.532C16.7407 36.2597 16.816 35.9469 16.816 35.5935C16.816 35.2344 16.7407 34.9215 16.59 34.655C16.4452 34.3886 16.2425 34.1829 15.9818 34.0381C15.7269 33.8875 15.4372 33.8121 15.1128 33.8121C14.7942 33.8121 14.5074 33.8875 14.2525 34.0381C13.9976 34.1829 13.7949 34.3886 13.6443 34.655C13.4936 34.9215 13.4183 35.2344 13.4183 35.5935C13.4183 35.9469 13.4936 36.2597 13.6443 36.532C13.7949 36.7985 13.9976 37.007 14.2525 37.1577C14.5074 37.3025 14.7942 37.3749 15.1128 37.3749ZM16.8334 37.8789V36.5059L16.8942 35.5848L16.8073 34.6637V31.4312H17.4243V37.8789H16.8334ZM21.4626 37.9224C21.0745 37.9224 20.7356 37.8499 20.4459 37.7051C20.1563 37.5603 19.9304 37.343 19.7682 37.0534C19.6117 36.7637 19.5335 36.4017 19.5335 35.9672V33.3168H20.1505V35.8977C20.1505 36.3843 20.2693 36.7521 20.5068 37.0013C20.7501 37.2446 21.089 37.3662 21.5235 37.3662C21.8421 37.3662 22.1173 37.3025 22.349 37.175C22.5865 37.0418 22.7661 36.8506 22.8877 36.6015C23.0152 36.3524 23.0789 36.0541 23.0789 35.7065V33.3168H23.6959V37.8789H23.105V36.6276L23.2006 36.8535C23.0557 37.1895 22.8298 37.4531 22.5228 37.6443C22.2215 37.8297 21.8682 37.9224 21.4626 37.9224ZM27.7442 37.9224C27.2923 37.9224 26.8868 37.8239 26.5276 37.6269C26.1742 37.4241 25.8962 37.149 25.6934 36.8014C25.4907 36.448 25.3893 36.0454 25.3893 35.5935C25.3893 35.1359 25.4907 34.7333 25.6934 34.3857C25.8962 34.0381 26.1742 33.7658 26.5276 33.5688C26.8868 33.3719 27.2923 33.2734 27.7442 33.2734C28.1323 33.2734 28.4828 33.3487 28.7956 33.4993C29.1084 33.6499 29.3547 33.8759 29.5342 34.1771L29.0737 34.4899C28.9173 34.2582 28.7232 34.0873 28.4915 33.9773C28.2598 33.8672 28.0078 33.8121 27.7355 33.8121C27.4111 33.8121 27.1185 33.8875 26.8578 34.0381C26.5971 34.1829 26.3915 34.3886 26.2409 34.655C26.0902 34.9215 26.0149 35.2344 26.0149 35.5935C26.0149 35.9527 26.0902 36.2655 26.2409 36.532C26.3915 36.7985 26.5971 37.007 26.8578 37.1577C27.1185 37.3025 27.4111 37.3749 27.7355 37.3749C28.0078 37.3749 28.2598 37.3199 28.4915 37.2098C28.7232 37.0997 28.9173 36.9317 29.0737 36.7058L29.5342 37.0186C29.3547 37.3141 29.1084 37.54 28.7956 37.6964C28.4828 37.847 28.1323 37.9224 27.7442 37.9224ZM33.0421 37.9224C32.5671 37.9224 32.15 37.8239 31.7908 37.6269C31.4317 37.4241 31.1507 37.149 30.9479 36.8014C30.7452 36.448 30.6438 36.0454 30.6438 35.5935C30.6438 35.1417 30.7394 34.7419 30.9306 34.3944C31.1275 34.0468 31.394 33.7745 31.73 33.5775C32.0718 33.3748 32.4541 33.2734 32.877 33.2734C33.3057 33.2734 33.6852 33.3719 34.0154 33.5688C34.3514 33.76 34.615 34.0323 34.8061 34.3857C34.9973 34.7333 35.0929 35.1359 35.0929 35.5935C35.0929 35.6225 35.09 35.6544 35.0842 35.6891C35.0842 35.7181 35.0842 35.7499 35.0842 35.7847H31.113V35.3241H34.754L34.5107 35.5066C34.5107 35.1764 34.4383 34.8839 34.2935 34.629C34.1544 34.3683 33.9632 34.1655 33.7199 34.0207C33.4766 33.8759 33.1957 33.8035 32.877 33.8035C32.5642 33.8035 32.2832 33.8759 32.0341 34.0207C31.785 34.1655 31.591 34.3683 31.4519 34.629C31.3129 34.8897 31.2434 35.188 31.2434 35.524V35.6196C31.2434 35.9672 31.3187 36.2742 31.4693 36.5407C31.6257 36.8014 31.8401 37.007 32.1123 37.1577C32.3904 37.3025 32.7061 37.3749 33.0595 37.3749C33.3376 37.3749 33.5954 37.3257 33.8329 37.2272C34.0762 37.1287 34.2848 36.9781 34.4586 36.7753L34.8061 37.175C34.6034 37.4184 34.3485 37.6037 34.0415 37.7312C33.7402 37.8586 33.4071 37.9224 33.0421 37.9224ZM36.844 37.9224C36.7166 37.9224 36.6065 37.876 36.5138 37.7833C36.4269 37.6906 36.3834 37.5777 36.3834 37.4444C36.3834 37.3054 36.4269 37.1924 36.5138 37.1055C36.6065 37.0186 36.7166 36.9752 36.844 36.9752C36.9714 36.9752 37.0786 37.0186 37.1655 37.1055C37.2582 37.1924 37.3046 37.3054 37.3046 37.4444C37.3046 37.5777 37.2582 37.6906 37.1655 37.7833C37.0786 37.876 36.9714 37.9224 36.844 37.9224Z" fill="#011640"/>
<path d="M45.0125 37.931C44.5606 37.931 44.1261 37.8586 43.709 37.7138C43.2977 37.5632 42.9791 37.372 42.7531 37.1403L43.0051 36.645C43.2195 36.8535 43.5062 37.0302 43.8654 37.175C44.2304 37.3141 44.6127 37.3836 45.0125 37.3836C45.3948 37.3836 45.7047 37.3373 45.9422 37.2446C46.1856 37.1461 46.3622 37.0157 46.4723 36.8535C46.5882 36.6913 46.6461 36.5117 46.6461 36.3148C46.6461 36.0773 46.5766 35.8861 46.4376 35.7413C46.3043 35.5964 46.1276 35.4835 45.9075 35.4024C45.6873 35.3155 45.444 35.2401 45.1776 35.1764C44.9111 35.1127 44.6446 35.0461 44.3781 34.9766C44.1116 34.9013 43.8654 34.8028 43.6395 34.6811C43.4193 34.5595 43.2398 34.4001 43.1007 34.2032C42.9675 34.0004 42.9009 33.7368 42.9009 33.4124C42.9009 33.1112 42.9791 32.836 43.1355 32.5869C43.2977 32.332 43.5439 32.1293 43.8741 31.9786C44.2043 31.8222 44.6272 31.744 45.1428 31.744C45.4846 31.744 45.8235 31.7933 46.1595 31.8917C46.4955 31.9844 46.7851 32.1148 47.0285 32.2828L46.8112 32.7955C46.5505 32.6217 46.2725 32.4942 45.977 32.4131C45.6873 32.332 45.4064 32.2915 45.1341 32.2915C44.7691 32.2915 44.4679 32.3407 44.2304 32.4392C43.9929 32.5377 43.8162 32.6709 43.7003 32.8389C43.5902 33.0011 43.5352 33.1865 43.5352 33.395C43.5352 33.6326 43.6018 33.8237 43.7351 33.9686C43.8741 34.1134 44.0537 34.2264 44.2738 34.3075C44.4998 34.3886 44.746 34.461 45.0125 34.5247C45.2789 34.5884 45.5425 34.6579 45.8032 34.7333C46.0697 34.8086 46.313 34.907 46.5331 35.0287C46.7591 35.1446 46.9387 35.301 47.0719 35.4979C47.2109 35.6949 47.2805 35.9527 47.2805 36.2713C47.2805 36.5668 47.1993 36.8419 47.0371 37.0968C46.8749 37.3459 46.6258 37.5487 46.2898 37.7051C45.9596 37.8557 45.5338 37.931 45.0125 37.931ZM51.8446 37.8789V36.8709L51.8185 36.7058V35.02C51.8185 34.6319 51.7084 34.3335 51.4883 34.125C51.2739 33.9164 50.9524 33.8121 50.5237 33.8121C50.2283 33.8121 49.9473 33.8614 49.6808 33.9599C49.4143 34.0584 49.1884 34.1887 49.003 34.3509L48.725 33.8904C48.9567 33.6934 49.2348 33.5428 49.5592 33.4385C49.8836 33.3284 50.2254 33.2734 50.5846 33.2734C51.1755 33.2734 51.6302 33.4211 51.9488 33.7166C52.2732 34.0062 52.4355 34.4494 52.4355 35.0461V37.8789H51.8446ZM50.2717 37.9224C49.9299 37.9224 49.6316 37.8673 49.3767 37.7573C49.1276 37.6414 48.9364 37.485 48.8032 37.288C48.6699 37.0853 48.6033 36.8535 48.6033 36.5928C48.6033 36.3553 48.6583 36.141 48.7684 35.9498C48.8843 35.7528 49.0697 35.5964 49.3246 35.4806C49.5852 35.3589 49.9328 35.2981 50.3673 35.2981H51.9401V35.7586H50.3847C49.9444 35.7586 49.6374 35.8368 49.4636 35.9933C49.2956 36.1497 49.2116 36.3437 49.2116 36.5755C49.2116 36.8361 49.313 37.0447 49.5157 37.2011C49.7185 37.3575 50.0023 37.4357 50.3673 37.4357C50.7149 37.4357 51.0132 37.3575 51.2623 37.2011C51.5172 37.0389 51.7026 36.8072 51.8185 36.5059L51.9575 36.9317C51.8417 37.233 51.6389 37.4734 51.3492 37.653C51.0654 37.8326 50.7062 37.9224 50.2717 37.9224ZM55.6339 37.8789L53.6092 33.3168H54.2523L56.1119 37.5487H55.8077L57.6934 33.3168H58.3016L56.2683 37.8789H55.6339ZM61.4155 37.9224C60.9405 37.9224 60.5234 37.8239 60.1642 37.6269C59.8051 37.4241 59.5241 37.149 59.3213 36.8014C59.1186 36.448 59.0172 36.0454 59.0172 35.5935C59.0172 35.1417 59.1128 34.7419 59.3039 34.3944C59.5009 34.0468 59.7674 33.7745 60.1034 33.5775C60.4452 33.3748 60.8275 33.2734 61.2504 33.2734C61.6791 33.2734 62.0586 33.3719 62.3888 33.5688C62.7248 33.76 62.9884 34.0323 63.1795 34.3857C63.3707 34.7333 63.4663 35.1359 63.4663 35.5935C63.4663 35.6225 63.4634 35.6544 63.4576 35.6891C63.4576 35.7181 63.4576 35.7499 63.4576 35.7847H59.4864V35.3241H63.1274L62.8841 35.5066C62.8841 35.1764 62.8117 34.8839 62.6668 34.629C62.5278 34.3683 62.3366 34.1655 62.0933 34.0207C61.85 33.8759 61.5691 33.8035 61.2504 33.8035C60.9376 33.8035 60.6566 33.8759 60.4075 34.0207C60.1584 34.1655 59.9644 34.3683 59.8253 34.629C59.6863 34.8897 59.6168 35.188 59.6168 35.524V35.6196C59.6168 35.9672 59.6921 36.2742 59.8427 36.5407C59.9991 36.8014 60.2135 37.007 60.4857 37.1577C60.7638 37.3025 61.0795 37.3749 61.4329 37.3749C61.711 37.3749 61.9688 37.3257 62.2063 37.2272C62.4496 37.1287 62.6582 36.9781 62.8319 36.7753L63.1795 37.175C62.9768 37.4184 62.7219 37.6037 62.4148 37.7312C62.1136 37.8586 61.7805 37.9224 61.4155 37.9224ZM65.2174 37.9224C65.0899 37.9224 64.9799 37.876 64.8872 37.7833C64.8003 37.6906 64.7568 37.5777 64.7568 37.4444C64.7568 37.3054 64.8003 37.1924 64.8872 37.1055C64.9799 37.0186 65.0899 36.9752 65.2174 36.9752C65.3448 36.9752 65.452 37.0186 65.5389 37.1055C65.6316 37.1924 65.6779 37.3054 65.6779 37.4444C65.6779 37.5777 65.6316 37.6906 65.5389 37.7833C65.452 37.876 65.3448 37.9224 65.2174 37.9224Z" fill="#011640"/>
<path d="M71.6801 37.8789V31.7961H73.9568C74.4723 31.7961 74.9155 31.8801 75.2863 32.0481C75.657 32.2104 75.9409 32.4479 76.1379 32.7607C76.3406 33.0677 76.442 33.4414 76.442 33.8817C76.442 34.3104 76.3406 34.6811 76.1379 34.9939C75.9409 35.301 75.657 35.5385 75.2863 35.7065C74.9155 35.8745 74.4723 35.9585 73.9568 35.9585H72.0363L72.3231 35.6544V37.8789H71.6801ZM72.3231 35.7065L72.0363 35.3937H73.9394C74.5477 35.3937 75.0082 35.2633 75.321 35.0026C75.6397 34.7361 75.799 34.3625 75.799 33.8817C75.799 33.395 75.6397 33.0185 75.321 32.752C75.0082 32.4855 74.5477 32.3523 73.9394 32.3523H72.0363L72.3231 32.0481V35.7065ZM78.0262 37.8789V33.3168H78.6171V34.5595L78.5563 34.3422C78.6838 33.9946 78.8981 33.731 79.1993 33.5515C79.5006 33.3661 79.8742 33.2734 80.3203 33.2734V33.873C80.2971 33.873 80.274 33.873 80.2508 33.873C80.2276 33.8672 80.2044 33.8643 80.1813 33.8643C79.7004 33.8643 79.3239 34.012 79.0516 34.3075C78.7793 34.5971 78.6432 35.0113 78.6432 35.5501V37.8789H78.0262ZM83.6977 37.9224C83.2575 37.9224 82.8606 37.8239 82.5072 37.6269C82.1597 37.4241 81.8845 37.149 81.6817 36.8014C81.479 36.448 81.3776 36.0454 81.3776 35.5935C81.3776 35.1359 81.479 34.7333 81.6817 34.3857C81.8845 34.0381 82.1597 33.7658 82.5072 33.5688C82.8548 33.3719 83.2517 33.2734 83.6977 33.2734C84.1496 33.2734 84.5493 33.3719 84.8969 33.5688C85.2503 33.7658 85.5255 34.0381 85.7224 34.3857C85.9252 34.7333 86.0266 35.1359 86.0266 35.5935C86.0266 36.0454 85.9252 36.448 85.7224 36.8014C85.5255 37.149 85.2503 37.4241 84.8969 37.6269C84.5435 37.8239 84.1438 37.9224 83.6977 37.9224ZM83.6977 37.3749C84.0279 37.3749 84.3205 37.3025 84.5754 37.1577C84.8303 37.007 85.0301 36.7985 85.175 36.532C85.3256 36.2597 85.4009 35.9469 85.4009 35.5935C85.4009 35.2344 85.3256 34.9215 85.175 34.655C85.0301 34.3886 84.8303 34.1829 84.5754 34.0381C84.3205 33.8875 84.0308 33.8121 83.7064 33.8121C83.382 33.8121 83.0924 33.8875 82.8375 34.0381C82.5826 34.1829 82.3798 34.3886 82.2292 34.655C82.0786 34.9215 82.0032 35.2344 82.0032 35.5935C82.0032 35.9469 82.0786 36.2597 82.2292 36.532C82.3798 36.7985 82.5826 37.007 82.8375 37.1577C83.0924 37.3025 83.3791 37.3749 83.6977 37.3749ZM89.1631 37.9224C88.7344 37.9224 88.4042 37.8065 88.1725 37.5748C87.9408 37.343 87.8249 37.0157 87.8249 36.5928V32.3088H88.4419V36.5581C88.4419 36.8246 88.5085 37.0302 88.6417 37.175C88.7808 37.3199 88.9777 37.3923 89.2326 37.3923C89.5049 37.3923 89.7308 37.3141 89.9104 37.1577L90.1277 37.6008C90.006 37.7109 89.8583 37.792 89.6845 37.8441C89.5165 37.8963 89.3427 37.9224 89.1631 37.9224ZM87.0081 33.8295V33.3168H89.8322V33.8295H87.0081ZM93.4618 37.9224C92.9868 37.9224 92.5697 37.8239 92.2105 37.6269C91.8514 37.4241 91.5704 37.149 91.3676 36.8014C91.1649 36.448 91.0635 36.0454 91.0635 35.5935C91.0635 35.1417 91.1591 34.7419 91.3503 34.3944C91.5472 34.0468 91.8137 33.7745 92.1497 33.5775C92.4915 33.3748 92.8738 33.2734 93.2967 33.2734C93.7254 33.2734 94.1049 33.3719 94.4351 33.5688C94.7711 33.76 95.0347 34.0323 95.2258 34.3857C95.417 34.7333 95.5126 35.1359 95.5126 35.5935C95.5126 35.6225 95.5097 35.6544 95.5039 35.6891C95.5039 35.7181 95.5039 35.7499 95.5039 35.7847H91.5327V35.3241H95.1737L94.9304 35.5066C94.9304 35.1764 94.858 34.8839 94.7132 34.629C94.5741 34.3683 94.383 34.1655 94.1396 34.0207C93.8963 33.8759 93.6154 33.8035 93.2967 33.8035C92.9839 33.8035 92.703 33.8759 92.4538 34.0207C92.2047 34.1655 92.0107 34.3683 91.8716 34.629C91.7326 34.8897 91.6631 35.188 91.6631 35.524V35.6196C91.6631 35.9672 91.7384 36.2742 91.889 36.5407C92.0454 36.8014 92.2598 37.007 92.5321 37.1577C92.8101 37.3025 93.1258 37.3749 93.4792 37.3749C93.7573 37.3749 94.0151 37.3257 94.2526 37.2272C94.4959 37.1287 94.7045 36.9781 94.8783 36.7753L95.2258 37.175C95.0231 37.4184 94.7682 37.6037 94.4612 37.7312C94.1599 37.8586 93.8268 37.9224 93.4618 37.9224ZM99.0972 37.9224C98.6454 37.9224 98.2398 37.8239 97.8807 37.6269C97.5273 37.4241 97.2492 37.149 97.0465 36.8014C96.8437 36.448 96.7423 36.0454 96.7423 35.5935C96.7423 35.1359 96.8437 34.7333 97.0465 34.3857C97.2492 34.0381 97.5273 33.7658 97.8807 33.5688C98.2398 33.3719 98.6454 33.2734 99.0972 33.2734C99.4854 33.2734 99.8358 33.3487 100.149 33.4993C100.462 33.6499 100.708 33.8759 100.887 34.1771L100.427 34.4899C100.27 34.2582 100.076 34.0873 99.8445 33.9773C99.6128 33.8672 99.3608 33.8121 99.0885 33.8121C98.7641 33.8121 98.4716 33.8875 98.2109 34.0381C97.9502 34.1829 97.7445 34.3886 97.5939 34.655C97.4433 34.9215 97.368 35.2344 97.368 35.5935C97.368 35.9527 97.4433 36.2655 97.5939 36.532C97.7445 36.7985 97.9502 37.007 98.2109 37.1577C98.4716 37.3025 98.7641 37.3749 99.0885 37.3749C99.3608 37.3749 99.6128 37.3199 99.8445 37.2098C100.076 37.0997 100.27 36.9317 100.427 36.7058L100.887 37.0186C100.708 37.3141 100.462 37.54 100.149 37.6964C99.8358 37.847 99.4854 37.9224 99.0972 37.9224ZM104.027 37.9224C103.598 37.9224 103.268 37.8065 103.037 37.5748C102.805 37.343 102.689 37.0157 102.689 36.5928V32.3088H103.306V36.5581C103.306 36.8246 103.373 37.0302 103.506 37.175C103.645 37.3199 103.842 37.3923 104.097 37.3923C104.369 37.3923 104.595 37.3141 104.774 37.1577L104.992 37.6008C104.87 37.7109 104.722 37.792 104.549 37.8441C104.381 37.8963 104.207 37.9224 104.027 37.9224ZM101.872 33.8295V33.3168H104.696V33.8295H101.872Z" fill="#011640"/>
</svg>
