<svg width="160" height="40" viewBox="0 0 160 40" fill="none" xmlns="http://www.w3.org/2000/svg">
<path d="M1.83008 5.86133H13.7743C22.3762 5.86133 28.2727 11.0444 28.2727 19.0078C28.2727 26.9712 22.3762 32.1543 13.7743 32.1543H1.83008V5.86133ZM13.4733 27.1574C18.6947 27.1574 22.1118 24.0396 22.1118 19.0061C22.1118 13.9727 18.6947 10.8549 13.4733 10.8549H7.91444V27.1558H13.4733V27.1574Z" fill="#2949A6"/>
<path d="M44.9856 11.6465V17.0557C44.4968 17.0175 44.121 16.9809 43.6703 16.9809C40.4394 16.9809 38.2993 18.7468 38.2993 22.6146V32.1544H32.4395V11.9458H38.0366V14.613C39.4633 12.6592 41.8678 11.6465 44.9856 11.6465Z" fill="#2949A6"/>
<path d="M93.6527 11.9458V28.7722C93.6527 36.2833 89.597 39.7403 82.3104 39.7403C78.4792 39.7403 74.7611 38.8008 72.3948 36.9617L74.7228 32.7547C76.4505 34.1448 79.2674 35.0461 81.8598 35.0461C85.9919 35.0461 87.7945 33.1687 87.7945 29.5254V28.6624C86.2547 30.3519 84.0381 31.1783 81.4091 31.1783C75.812 31.1783 71.3057 27.3089 71.3057 21.4124C71.3057 15.5159 75.812 11.6465 81.4091 11.6465C84.226 11.6465 86.554 12.586 88.0954 14.5382V11.9458H93.6544H93.6527ZM87.8693 21.4107C87.8693 18.4442 85.6527 16.4521 82.5731 16.4521C79.4935 16.4521 77.2404 18.4425 77.2404 21.4107C77.2404 24.3789 79.4935 26.3693 82.5731 26.3693C85.6527 26.3693 87.8693 24.3789 87.8693 21.4107Z" fill="#2949A6"/>
<path d="M123.625 24.9791C123.625 29.5237 120.02 32.1526 113.108 32.1526H99.5107V5.86133H112.356C118.929 5.86133 122.31 8.60337 122.31 12.6973C122.31 15.3263 120.958 17.3549 118.816 18.4823C121.746 19.4219 123.624 21.675 123.624 24.9808L123.625 24.9791ZM105.559 10.4441V16.6416H111.606C114.573 16.6416 116.189 15.5907 116.189 13.5237C116.189 11.4568 114.574 10.4441 111.606 10.4441H105.559ZM117.503 24.3406C117.503 22.124 115.813 21.0731 112.657 21.0731H105.559V27.5715H112.657C115.812 27.5715 117.503 26.5954 117.503 24.3406Z" fill="#2949A6"/>
<path d="M127.117 5.86125C127.117 4.02047 128.582 2.59375 130.76 2.59375C132.939 2.59375 134.404 3.94565 134.404 5.74817C134.404 7.70202 132.939 9.12875 130.76 9.12875C128.582 9.12875 127.117 7.70202 127.117 5.86125ZM127.831 11.9456H133.69V32.1526H127.831V11.9456Z" fill="#2949A6"/>
<path d="M159.794 20.5857V32.1541H153.934V21.4869C153.934 18.2194 152.431 16.7162 149.84 16.7162C147.023 16.7162 144.995 18.4439 144.995 22.1621V32.1524H139.135V11.9455H144.732V14.3117C146.31 12.584 148.676 11.6445 151.418 11.6445C156.189 11.6445 159.794 14.4232 159.794 20.584V20.5857Z" fill="#2949A6"/>
<path d="M52.8945 14.6426L52.8945 25.6666C52.8945 28.1911 54.941 30.2376 57.4655 30.2376H59.5897C62.1142 30.2376 64.1607 28.1911 64.1607 25.6666L64.1607 14.6426" stroke="#2949A6" stroke-width="5.37759" stroke-linecap="square"/>
<path d="M50.0944 9.50459L49.6789 6.70855L53.1611 6.14586L53.1763 4.06164L61.5452 2.77725L62.4805 4.79985L66.5239 4.29531L66.9246 7.1805L50.0944 9.50459Z" fill="#2949A6"/>
<path d="M53.1611 6.14586L49.6789 6.70855L50.0944 9.50459L66.9246 7.1805L66.5239 4.29531L62.4805 4.79985M53.1611 6.14586L53.1763 4.06164L61.5452 2.77725L62.4805 4.79985M53.1611 6.14586L62.4805 4.79985" stroke="#2949A6" stroke-width="1.3444"/>
</svg>
