<svg width="110" height="27" viewBox="0 0 110 27" fill="none" xmlns="http://www.w3.org/2000/svg">
<path d="M1.10938 3.83008H9.27781C15.1605 3.83008 19.193 7.3747 19.193 12.8207C19.193 18.2667 15.1605 21.8113 9.27781 21.8113H1.10938V3.83008ZM9.07197 18.3941C12.6427 18.3941 14.9797 16.2618 14.9797 12.8196C14.9797 9.37729 12.6427 7.24506 9.07197 7.24506H5.27035V18.3929H9.07197V18.3941Z" fill="#2949A6"/>
<path d="M30.6231 7.78711V11.4864C30.2887 11.4602 30.0317 11.4352 29.7235 11.4352C27.514 11.4352 26.0504 12.6429 26.0504 15.288V21.8121H22.043V7.9918H25.8707V9.81585C26.8465 8.47966 28.4908 7.78711 30.6231 7.78711Z" fill="#2949A6"/>
<path d="M63.9048 7.9918V19.499C63.9048 24.6357 61.1312 26.9999 56.148 26.9999C53.5279 26.9999 50.9852 26.3574 49.3669 25.0997L50.959 22.2226C52.1405 23.1733 54.0669 23.7896 55.8398 23.7896C58.6657 23.7896 59.8984 22.5057 59.8984 20.0142V19.424C58.8454 20.5793 57.3295 21.1445 55.5316 21.1445C51.7039 21.1445 48.6221 18.4983 48.6221 14.4658C48.6221 10.4333 51.7039 7.78711 55.5316 7.78711C57.458 7.78711 59.0501 8.42962 60.1043 9.76468V7.9918H63.9059H63.9048ZM59.9496 14.4647C59.9496 12.4359 58.4337 11.0736 56.3277 11.0736C54.2216 11.0736 52.6807 12.4348 52.6807 14.4647C52.6807 16.4946 54.2216 17.8558 56.3277 17.8558C58.4337 17.8558 59.9496 16.4946 59.9496 14.4647Z" fill="#2949A6"/>
<path d="M84.4026 16.9043C84.4026 20.0123 81.9372 21.8102 77.2099 21.8102H67.9111V3.83008H76.6959C81.1912 3.83008 83.5031 5.7053 83.5031 8.50506C83.5031 10.303 82.5786 11.6903 81.1139 12.4613C83.1176 13.1039 84.4015 14.6447 84.4015 16.9055L84.4026 16.9043ZM72.0471 6.96417V11.2025H76.183C78.2118 11.2025 79.3171 10.4838 79.3171 9.07025C79.3171 7.65672 78.2129 6.96417 76.183 6.96417H72.0471ZM80.2155 16.4677C80.2155 14.9518 79.0601 14.2331 76.9018 14.2331H72.0471V18.6772H76.9018C79.059 18.6772 80.2155 18.0097 80.2155 16.4677Z" fill="#2949A6"/>
<path d="M86.791 3.83028C86.791 2.57141 87.7929 1.5957 89.2826 1.5957C90.7723 1.5957 91.7742 2.52024 91.7742 3.75295C91.7742 5.08915 90.7723 6.06486 89.2826 6.06486C87.7929 6.06486 86.791 5.08915 86.791 3.83028ZM87.2789 7.99125H91.2863V21.8104H87.2789V7.99125Z" fill="#2949A6"/>
<path d="M109.138 13.8998V21.8112H105.131V14.5162C105.131 12.2816 104.103 11.2536 102.331 11.2536C100.405 11.2536 99.0172 12.4351 99.0172 14.9779V21.8101H95.0098V7.99099H98.8375V9.60921C99.9167 8.42767 101.535 7.78516 103.41 7.78516C106.673 7.78516 109.138 9.6854 109.138 13.8987V13.8998Z" fill="#2949A6"/>
<path d="M36.0322 9.83594L36.0322 17.3751C36.0322 19.1015 37.4318 20.501 39.1582 20.501H40.6109C42.3374 20.501 43.7369 19.1015 43.7369 17.3751L43.7369 9.83594" stroke="#2949A6" stroke-width="3.67762" stroke-linecap="square"/>
<path d="M34.1168 6.32347L33.8326 4.41131L36.2141 4.02649L36.2244 2.60114L41.9478 1.72277L42.5874 3.10598L45.3526 2.76094L45.6267 4.73406L34.1168 6.32347Z" fill="#2949A6"/>
<path d="M36.2141 4.02649L33.8326 4.41131L34.1168 6.32347L45.6267 4.73406L45.3526 2.76094L42.5874 3.10598M36.2141 4.02649L36.2244 2.60114L41.9478 1.72277L42.5874 3.10598M36.2141 4.02649L42.5874 3.10598" stroke="#2949A6" stroke-width="0.919406"/>
</svg>
