<svg width="106" height="28" viewBox="0 0 106 28" fill="none" xmlns="http://www.w3.org/2000/svg">
<path d="M1.06982 4.67969H8.94333C14.6136 4.67969 18.5005 8.09632 18.5005 13.3457C18.5005 18.5951 14.6136 22.0117 8.94333 22.0117H1.06982V4.67969ZM8.74493 18.7178C12.1868 18.7178 14.4393 16.6626 14.4393 13.3446C14.4393 10.0266 12.1868 7.97137 8.74493 7.97137H5.08056V18.7167H8.74493V18.7178Z" fill="#2949A6"/>
<path d="M29.5174 8.49414V12.0599C29.1951 12.0346 28.9474 12.0105 28.6503 12.0105C26.5206 12.0105 25.1098 13.1746 25.1098 15.7242V22.0127H21.2471V8.69144H24.9366V10.4496C25.8771 9.16168 27.4621 8.49414 29.5174 8.49414Z" fill="#2949A6"/>
<path d="M61.5986 8.69144V19.7832C61.5986 24.7344 58.9251 27.0133 54.1219 27.0133C51.5964 27.0133 49.1454 26.3939 47.5856 25.1816L49.1202 22.4084C50.2591 23.3248 52.1159 23.9189 53.8248 23.9189C56.5487 23.9189 57.7369 22.6814 57.7369 20.2797V19.7108C56.7219 20.8245 55.2607 21.3693 53.5278 21.3693C49.8382 21.3693 46.8677 18.8186 46.8677 14.9317C46.8677 11.0448 49.8382 8.49414 53.5278 8.49414C55.3846 8.49414 56.9192 9.11345 57.9353 10.4003V8.69144H61.5997H61.5986ZM57.7862 14.9306C57.7862 12.9751 56.3251 11.662 54.2951 11.662C52.265 11.662 50.7798 12.974 50.7798 14.9306C50.7798 16.8872 52.265 18.1993 54.2951 18.1993C56.3251 18.1993 57.7862 16.8872 57.7862 14.9306Z" fill="#2949A6"/>
<path d="M81.3555 17.2819C81.3555 20.2776 78.9791 22.0106 74.4225 22.0106H65.4595V4.67969H73.9271C78.2601 4.67969 80.4885 6.48721 80.4885 9.18588C80.4885 10.9189 79.5974 12.2561 78.1855 12.9993C80.1169 13.6186 81.3545 15.1039 81.3545 17.283L81.3555 17.2819ZM69.4461 7.70062V11.7859H73.4327C75.3882 11.7859 76.4537 11.0931 76.4537 9.73066C76.4537 8.36817 75.3893 7.70062 73.4327 7.70062H69.4461ZM77.3196 16.861C77.3196 15.3998 76.2059 14.7071 74.1255 14.7071H69.4461V18.9908H74.1255C76.2048 18.9908 77.3196 18.3473 77.3196 16.861Z" fill="#2949A6"/>
<path d="M83.6572 4.68124C83.6572 3.46782 84.6229 2.52734 86.0589 2.52734C87.4948 2.52734 88.4605 3.4185 88.4605 4.6067C88.4605 5.89466 87.4948 6.83514 86.0589 6.83514C84.6229 6.83514 83.6572 5.89466 83.6572 4.68124ZM84.1275 8.69198H87.9902V22.0122H84.1275V8.69198Z" fill="#2949A6"/>
<path d="M105.197 14.3861V22.0119H101.335V14.9802C101.335 12.8263 100.344 11.8354 98.636 11.8354C96.7791 11.8354 95.4419 12.9743 95.4419 15.4252V22.0108H91.5791V8.69059H95.2687V10.2504C96.3089 9.1115 97.8687 8.49219 99.6762 8.49219C102.821 8.49219 105.197 10.3238 105.197 14.385V14.3861Z" fill="#2949A6"/>
<path d="M34.7314 10.4707L34.7315 17.7376C34.7315 19.4017 36.0805 20.7507 37.7446 20.7507H39.1448C40.8089 20.7507 42.1579 19.4017 42.1579 17.7376L42.1579 10.4707" stroke="#2949A6" stroke-width="3.54484" stroke-linecap="square"/>
<path d="M32.887 7.08492L32.6131 5.24181L34.9086 4.87088L34.9186 3.49699L40.4353 2.65034L41.0518 3.98361L43.7172 3.65102L43.9813 5.5529L32.887 7.08492Z" fill="#2949A6"/>
<path d="M34.9086 4.87088L32.6131 5.24181L32.887 7.08492L43.9813 5.5529L43.7172 3.65102L41.0518 3.98361M34.9086 4.87088L34.9186 3.49699L40.4353 2.65034L41.0518 3.98361M34.9086 4.87088L41.0518 3.98361" stroke="#2949A6" stroke-width="0.88621"/>
</svg>
