<svg width="24" height="24" viewBox="0 0 24 24" fill="none" xmlns="http://www.w3.org/2000/svg">
<g clip-path="url(#clip0_1079_5069)">
<path d="M19.5624 12.0977L21.0934 14.7507C22.0604 16.4247 21.4864 18.5657 19.8134 19.5317C19.2804 19.8387 18.6774 20.0007 18.0634 20.0007H16.0004V22.5007L11.0004 19.0007L16.0004 15.5007V18.0007H18.0624C18.3254 18.0007 18.5844 17.9307 18.8124 17.7997C19.5304 17.3857 19.7754 16.4677 19.3624 15.7507L17.8304 13.0977L19.5624 12.0977ZM7.30444 9.13474L7.83444 15.2147L5.67044 13.9647L4.63944 15.7507C4.50744 15.9787 4.43844 16.2377 4.43844 16.5007C4.43844 17.3287 5.10944 18.0007 5.93844 18.0007H9.00044V20.0007H5.93844C4.00544 20.0007 2.43844 18.4337 2.43844 16.5007C2.43844 15.8867 2.60044 15.2827 2.90744 14.7507L3.93744 12.9637L1.77344 11.7147L7.30344 9.13474H7.30444ZM13.7504 2.96974C14.2824 3.27674 14.7244 3.71874 15.0314 4.25074L16.0614 6.03574L18.2274 4.78574L17.6974 10.8667L12.1654 8.28674L14.3304 7.03674L13.2994 5.25074C13.1674 5.02274 12.9784 4.83374 12.7504 4.70174C12.0334 4.28774 11.1154 4.53374 10.7014 5.25074L9.16944 7.90374L7.43744 6.90374L8.97044 4.25074C9.93644 2.57674 12.0774 2.00274 13.7514 2.96974H13.7504Z" fill="#1C3375"/>
</g>
<defs>
<clipPath id="clip0_1079_5069">
<rect width="24" height="24" fill="white"/>
</clipPath>
</defs>
</svg>
