<svg width="32" height="32" viewBox="0 0 32 32" fill="none" xmlns="http://www.w3.org/2000/svg">
<g clip-path="url(#clip0_3827_4577)">
<path d="M15.9996 0.666016L21.6342 8.91002L31.2169 11.722L25.1169 19.6287L25.4036 29.61L15.9996 26.2527L6.59556 29.61L6.88223 19.6287L0.782227 11.722L10.3649 8.91002L15.9996 0.666016ZM15.9996 5.39135L12.0289 11.202L5.27556 13.182L9.57556 18.7527L9.37156 25.786L15.9996 23.4207L22.6262 25.786L22.4236 18.7527L26.7222 13.182L19.9702 11.202L15.9996 5.39135ZM13.3329 15.9993C13.3329 16.7066 13.6138 17.3849 14.1139 17.885C14.614 18.3851 15.2923 18.666 15.9996 18.666C16.7068 18.666 17.3851 18.3851 17.8852 17.885C18.3853 17.3849 18.6662 16.7066 18.6662 15.9993H21.3329C21.3329 17.4138 20.771 18.7704 19.7708 19.7706C18.7706 20.7708 17.414 21.3327 15.9996 21.3327C14.5851 21.3327 13.2285 20.7708 12.2283 19.7706C11.2281 18.7704 10.6662 17.4138 10.6662 15.9993H13.3329Z" fill="#2949A6"/>
</g>
<defs>
<clipPath id="clip0_3827_4577">
<rect width="32" height="32" fill="white"/>
</clipPath>
</defs>
</svg>
