<svg width="24" height="25" viewBox="0 0 24 25" fill="none" xmlns="http://www.w3.org/2000/svg">
<g clip-path="url(#clip0_2625_4431)">
<path fill-rule="evenodd" clip-rule="evenodd" d="M16.9076 10.7085V15.9921C16.9076 19.5018 14.8183 23.3992 9.65694 23.3992C5.67715 23.3817 2.41211 20.1017 2.41211 16.1219C2.41211 16.0603 2.41294 15.9988 2.41461 15.9322C2.5311 12.0914 5.72292 8.99605 9.56542 8.99605C9.92071 8.99605 10.276 9.02268 10.628 9.0751C11.0681 9.14167 11.3943 9.52026 11.3943 9.96542V13.3952C11.3943 13.6748 11.2645 13.9377 11.0432 14.1083C10.8218 14.2789 10.5348 14.3363 10.2644 14.2656C10.0913 14.2198 9.91239 14.1965 9.73266 14.1965C8.62018 14.1965 7.69409 15.086 7.64916 16.1976L7.64417 16.3341C7.64417 17.3201 8.45543 18.1322 9.44144 18.1322L9.84 18.133C10.821 18.133 11.6281 17.3259 11.6281 16.3441L11.619 16.1219V2.52921C11.619 2.03246 12.0225 1.62891 12.5193 1.62891H15.9116C16.3534 1.62891 16.7304 1.95009 16.8003 2.38609C17.0441 3.90379 17.5067 4.85651 18.2006 5.45227C18.9004 6.05302 19.8057 6.28434 20.83 6.44826C21.2668 6.51815 21.588 6.89508 21.588 7.33691V10.7775C21.588 11.0288 21.4823 11.2693 21.2976 11.439C21.1129 11.6096 20.8649 11.6953 20.6145 11.6745C19.3281 11.5688 18.0742 11.241 16.9076 10.7085ZM15.1702 3.42951H13.4196V16.0903C13.4254 16.1743 13.4287 16.2592 13.4287 16.3441C13.4287 18.3127 11.8087 19.9328 9.84 19.9328C9.77094 19.9328 9.70187 19.9311 9.63281 19.9261C9.56958 19.9303 9.50551 19.932 9.44144 19.932C7.46777 19.932 5.8444 18.3077 5.8444 16.3341C5.8444 16.2575 5.84689 16.1801 5.85022 16.1244C5.9326 14.1008 7.58426 12.4708 9.59371 12.3992V10.7967L9.56542 10.7958C6.68978 10.7958 4.30091 13.1131 4.21354 15.9829C4.21271 16.0287 4.21188 16.0753 4.21188 16.1219C4.21188 19.1174 6.66981 21.5861 9.6611 21.5986C13.5519 21.5986 15.107 18.6397 15.107 15.9921V9.19658C15.107 8.86791 15.2867 8.56504 15.5755 8.40695C15.8642 8.24886 16.2153 8.26134 16.4924 8.43857C17.5 9.08342 18.6192 9.52775 19.7874 9.74908V8.08244C18.7257 7.8478 17.7938 7.47586 17.0283 6.81853C16.2012 6.10794 15.5447 5.06036 15.1702 3.42951Z" fill="#1C3375"/>
</g>
<defs>
<clipPath id="clip0_2625_4431">
<rect width="24" height="24" fill="white" transform="translate(0 0.5)"/>
</clipPath>
</defs>
</svg>
