<svg width="24" height="25" viewBox="0 0 24 25" fill="none" xmlns="http://www.w3.org/2000/svg">
<g clip-path="url(#clip0_2624_4413)">
<path d="M9.5 8V17L16.5 12.5L9.5 8Z" stroke="#1C3375" stroke-width="2" stroke-linecap="round" stroke-linejoin="round"/>
<path d="M3.12981 4.67003L4.99981 4.43003C7.32192 4.14116 9.65981 3.99755 11.9998 4.00003C14.3398 3.99755 16.6777 4.14116 18.9998 4.43003L20.8998 4.67003C21.6297 4.76073 22.3009 5.11641 22.7858 5.6695C23.2706 6.22258 23.5354 6.93452 23.5298 7.67003V17.37C23.5354 18.1055 23.2706 18.8175 22.7858 19.3706C22.3009 19.9237 21.6297 20.2793 20.8998 20.37L18.9998 20.61C16.6777 20.8989 14.3398 21.0425 11.9998 21.04C9.65981 21.0425 7.32192 20.8989 4.99981 20.61L3.09981 20.37C2.3699 20.2793 1.69873 19.9237 1.21386 19.3706C0.728989 18.8175 0.464201 18.1055 0.469814 17.37V7.65003C0.469979 6.91337 0.74118 6.20252 1.23173 5.65295C1.72229 5.10339 2.3979 4.75352 3.12981 4.67003Z" stroke="#1C3375" stroke-width="2" stroke-linecap="round" stroke-linejoin="round"/>
</g>
<defs>
<clipPath id="clip0_2624_4413">
<rect width="24" height="24" fill="white" transform="translate(0 0.5)"/>
</clipPath>
</defs>
</svg>
