<svg width="168" height="276" viewBox="0 0 168 276" fill="none" xmlns="http://www.w3.org/2000/svg">
<path d="M35.5352 112.139L35.5352 210.058C35.5352 232.481 53.7127 250.658 76.1358 250.658H95.0038C117.427 250.658 135.604 232.481 135.604 210.058L135.604 112.139" stroke="#2949A6" stroke-width="47.7654" stroke-linecap="square"/>
<path d="M10.6782 66.508L6.98729 41.6727L37.9179 36.6747L38.0521 18.162L112.388 6.75371L120.695 24.719L156.61 20.2376L160.17 45.8647L10.6782 66.508Z" fill="#2949A6"/>
<path d="M37.9179 36.6747L6.98729 41.6727L10.6782 66.508L160.17 45.8647L156.61 20.2376L120.695 24.719M37.9179 36.6747L38.0521 18.162L112.388 6.75371L120.695 24.719M37.9179 36.6747L120.695 24.719" stroke="#2949A6" stroke-width="11.9413"/>
</svg>
