<svg width="24" height="25" viewBox="0 0 24 25" fill="none" xmlns="http://www.w3.org/2000/svg">
<g clip-path="url(#clip0_209_5031)">
<path d="M12 9.85701C12.917 8.92001 14.111 8.30701 15.5 8.30701C16.9587 8.30701 18.3576 8.88647 19.3891 9.91792C20.4205 10.9494 21 12.3483 21 13.807V21.307H19V13.807C19 12.8787 18.6313 11.9885 17.9749 11.3321C17.3185 10.6758 16.4283 10.307 15.5 10.307C14.5717 10.307 13.6815 10.6758 13.0251 11.3321C12.3687 11.9885 12 12.8787 12 13.807V21.307H10V8.80701H12V9.85701ZM5 6.80701C4.60218 6.80701 4.22064 6.64897 3.93934 6.36767C3.65804 6.08636 3.5 5.70483 3.5 5.30701C3.5 4.90918 3.65804 4.52765 3.93934 4.24635C4.22064 3.96504 4.60218 3.80701 5 3.80701C5.39782 3.80701 5.77936 3.96504 6.06066 4.24635C6.34196 4.52765 6.5 4.90918 6.5 5.30701C6.5 5.70483 6.34196 6.08636 6.06066 6.36767C5.77936 6.64897 5.39782 6.80701 5 6.80701ZM4 8.80701H6V21.307H4V8.80701Z" fill="#09121F"/>
</g>
<defs>
<clipPath id="clip0_209_5031">
<rect width="24" height="24" fill="white" transform="translate(0 0.307007)"/>
</clipPath>
</defs>
</svg>
