<svg width="148" height="37" viewBox="0 0 148 37" fill="none" xmlns="http://www.w3.org/2000/svg">
<path d="M1.50488 5.1947H12.5819C20.5593 5.1947 26.0276 10.0015 26.0276 17.3867C26.0276 24.7719 20.5593 29.5786 12.5819 29.5786H1.50488V5.1947ZM12.3028 24.9446C17.145 24.9446 20.3141 22.0531 20.3141 17.3851C20.3141 12.7171 17.145 9.82568 12.3028 9.82568H7.14749V24.943H12.3028V24.9446Z" fill="#2949A6"/>
<path d="M41.5269 10.5594V15.576C41.0735 15.5405 40.725 15.5066 40.3071 15.5066C37.3107 15.5066 35.326 17.1443 35.326 20.7312V29.5784H29.8916V10.837H35.0824V13.3106C36.4055 11.4986 38.6354 10.5594 41.5269 10.5594Z" fill="#2949A6"/>
<path d="M86.6615 10.837V26.4417C86.6615 33.4074 82.9003 36.6135 76.1427 36.6135C72.5897 36.6135 69.1415 35.7422 66.9471 34.0366L69.1061 30.1351C70.7083 31.4243 73.3207 32.2601 75.7248 32.2601C79.557 32.2601 81.2286 30.5191 81.2286 27.1403V26.3399C79.8006 27.9067 77.745 28.6731 75.3069 28.6731C70.1161 28.6731 65.937 25.0846 65.937 19.6163C65.937 14.148 70.1161 10.5594 75.3069 10.5594C77.9193 10.5594 80.0782 11.4307 81.5078 13.2412V10.837H86.6631H86.6615ZM81.298 19.6148C81.298 16.8636 79.2424 15.0162 76.3864 15.0162C73.5304 15.0162 71.4408 16.8621 71.4408 19.6148C71.4408 22.3674 73.5304 24.2133 76.3864 24.2133C79.2424 24.2133 81.298 22.3674 81.298 19.6148Z" fill="#2949A6"/>
<path d="M114.458 22.9244C114.458 27.139 111.114 29.5771 104.704 29.5771H92.0938V5.1947H104.007C110.103 5.1947 113.238 7.73765 113.238 11.5343C113.238 13.9724 111.984 15.8538 109.998 16.8994C112.715 17.7707 114.456 19.8602 114.456 22.926L114.458 22.9244ZM97.7024 9.44478V15.1922H103.311C106.062 15.1922 107.561 14.2176 107.561 12.3008C107.561 10.3839 106.064 9.44478 103.311 9.44478H97.7024ZM108.779 22.3322C108.779 20.2766 107.213 19.302 104.286 19.302H97.7024V25.3286H104.286C107.211 25.3286 108.779 24.4234 108.779 22.3322Z" fill="#2949A6"/>
<path d="M117.695 5.19481C117.695 3.48769 119.054 2.16455 121.074 2.16455C123.094 2.16455 124.453 3.41829 124.453 5.08995C124.453 6.90193 123.094 8.22507 121.074 8.22507C119.054 8.22507 117.695 6.90193 117.695 5.19481ZM118.357 10.8374H123.791V29.5772H118.357V10.8374Z" fill="#2949A6"/>
<path d="M148 18.8499V29.5784H142.566V19.6858C142.566 16.6555 141.172 15.2614 138.769 15.2614C136.157 15.2614 134.275 16.8637 134.275 20.3119V29.5769H128.841V10.8371H134.032V13.0315C135.495 11.4293 137.689 10.558 140.232 10.558C144.657 10.558 148 13.1349 148 18.8484V18.8499Z" fill="#2949A6"/>
<path d="M48.0176 13.1086L48.0176 23.1554C48.0176 25.4561 49.8826 27.3211 52.1833 27.3211H54.1192C56.4199 27.3211 58.285 25.4561 58.285 23.1554L58.285 13.1086" stroke="#2949A6" stroke-width="4.90086" stroke-linecap="square"/>
<path d="M45.4669 8.42684L45.0882 5.87867L48.2618 5.36586L48.2755 3.46641L55.9026 2.29589L56.7549 4.13918L60.4399 3.67937L60.8051 6.30878L45.4669 8.42684Z" fill="#2949A6"/>
<path d="M48.2618 5.36586L45.0882 5.87867L45.4669 8.42684L60.8051 6.30878L60.4399 3.67937L56.7549 4.13918M48.2618 5.36586L48.2755 3.46641L55.9026 2.29589L56.7549 4.13918M48.2618 5.36586L56.7549 4.13918" stroke="#2949A6" stroke-width="1.22521"/>
</svg>
