<svg width="24" height="24" viewBox="0 0 24 24" fill="none" xmlns="http://www.w3.org/2000/svg">
<g clip-path="url(#clip0_1079_5061)">
<path d="M3.16104 4.46868C4.32111 3.3084 5.87704 2.62976 7.51664 2.56893C9.15624 2.50809 10.7582 3.06956 12.001 4.14068C13.2428 3.07135 14.8426 2.51051 16.4803 2.57044C18.1179 2.63037 19.6724 3.30665 20.8327 4.46388C21.993 5.62112 22.6733 7.1739 22.7375 8.81137C22.8018 10.4488 22.2451 12.0501 21.179 13.2947L13.414 21.0847C13.0573 21.4416 12.5788 21.6504 12.0746 21.6693C11.5703 21.6882 11.0775 21.5158 10.695 21.1867L10.585 21.0857L2.82104 13.2947C1.75553 12.0512 1.19862 10.4514 1.26166 8.81506C1.32469 7.17873 2.00303 5.62649 3.16104 4.46868ZM4.57504 5.88268C3.75728 6.70066 3.2859 7.80212 3.25871 8.95845C3.23152 10.1148 3.65063 11.2372 4.42904 12.0927L4.57504 12.2467L12 19.6717L17.303 14.3677L13.768 10.8327L12.708 11.8927C12.4295 12.1713 12.0988 12.3924 11.7348 12.5433C11.3709 12.6941 10.9807 12.7718 10.5868 12.7719C9.79103 12.7721 9.02783 12.4562 8.46504 11.8937C7.90225 11.3312 7.58598 10.5681 7.58579 9.77238C7.5856 8.97667 7.90152 8.21347 8.46404 7.65068L10.566 5.54768C9.72951 4.88005 8.68245 4.53237 7.61273 4.567C6.543 4.60164 5.52063 5.01633 4.72904 5.73668L4.57504 5.88268ZM13.061 8.71068C13.2486 8.52321 13.5029 8.41789 13.768 8.41789C14.0332 8.41789 14.2875 8.52321 14.475 8.71068L18.717 12.9527L19.425 12.2467C20.2565 11.4158 20.7299 10.2926 20.7439 9.11724C20.7579 7.94188 20.3115 6.80769 19.5001 5.95723C18.6887 5.10677 17.5767 4.60755 16.402 4.56633C15.2273 4.52511 14.0831 4.94517 13.214 5.73668L13.061 5.88268L9.87904 9.06468C9.70571 9.23789 9.60202 9.46872 9.58764 9.71334C9.57326 9.95796 9.6492 10.1993 9.80104 10.3917L9.87904 10.4787C10.0523 10.652 10.2831 10.7557 10.5277 10.7701C10.7723 10.7845 11.0137 10.7085 11.206 10.5567L11.293 10.4787L13.061 8.71068Z" fill="#1C3375"/>
</g>
<defs>
<clipPath id="clip0_1079_5061">
<rect width="24" height="24" fill="white"/>
</clipPath>
</defs>
</svg>
